<svg width="1800" height="1800" viewBox="0 0 1800 1800" fill="none" xmlns="http://www.w3.org/2000/svg">
<circle cx="900" cy="900" r="900" fill="#182636"/>
<path d="M863.5 1655C790.8 1650.3 725.7 1637.7 663.5 1616.1C645.1 1609.8 637 1606.7 613 1596.7C576.1 1581.4 513.4 1546.6 474.3 1519.8C401.6 1469.9 325.2 1391.4 275.7 1315.9C259.8 1291.7 247.3 1269.9 233.9 1243C217.5 1209.9 208.7 1189.7 199.7 1164C189.3 1134.4 176.3 1087.4 172 1063.7C170.9 1058.1 168.8 1046.3 167.1 1037.5C160.2 999.8 155 940.3 155 898C155 845.5 163.9 772.5 175.9 727C177 722.9 179.3 714.1 181 707.5C200.9 631 241.1 546.2 290.1 477.5C309.4 450.4 310.7 448.7 321.6 435C359.7 387.3 417.5 331.9 464.4 298.2C508.6 266.4 549.5 242.8 603.5 218C675.9 184.7 746.8 165.4 831.5 156.1C863.9 152.5 881.8 151.7 915 152.3C1012.4 154.1 1103.3 173.7 1188.9 211.6C1220.2 225.3 1278 256.1 1299 270C1300.4 270.9 1304.9 273.9 1309 276.6C1316.9 281.8 1341.1 298.5 1347 302.9C1364.3 315.7 1398.1 344.5 1418.2 363.6C1468.7 411.6 1517.8 474.4 1552 534.9C1588.2 598.9 1614.2 663.8 1630.9 732.3C1639.6 767.8 1645.1 801.7 1649.2 846C1651.1 866.7 1650.8 938.4 1648.7 963.9C1642.5 1036.8 1627.1 1108 1603.3 1172.5C1595.7 1193.1 1574 1240.4 1563.6 1259C1560.7 1264.2 1554.8 1274.8 1550.5 1282.5C1542 1297.9 1518.8 1333.2 1505.9 1350.5C1465.3 1404.8 1411 1460.2 1361.5 1497.8C1354.9 1502.8 1348.1 1508 1346.5 1509.3C1342.8 1512.3 1310.1 1534.2 1300.5 1540C1268.4 1559.7 1219.8 1585.1 1190.5 1597.5C1114.7 1629.8 1039 1647.9 954 1654C934.5 1655.5 879.6 1656 863.5 1655ZM924.5 1545.5C930.6 1543.5 938.9 1539.6 946 1535.4C952.3 1531.7 958.7 1528 960.2 1527.1C961.8 1526.2 963 1524.9 963 1524.3C963 1523.6 963.7 1523 964.5 1523C965.3 1523 966 1522.6 966 1522C966 1521.5 966.9 1521 967.9 1521C970.5 1521 976 1517.8 976 1516.3C976 1515.6 977 1515 978.2 1515C979.4 1515 987.9 1510.3 997 1504.6C1006.1 1498.9 1022.1 1489 1032.5 1482.5C1043 1476 1053.8 1469.2 1056.6 1467.4C1059.4 1465.6 1062.9 1463.6 1064.3 1462.9C1065.8 1462.2 1067 1461.1 1067 1460.3C1067 1459.6 1067.8 1459 1068.8 1459C1071.3 1459 1089 1447.9 1089 1446.3C1089 1445.6 1089.9 1445 1091 1445C1092.9 1445 1108.2 1436.1 1124.5 1425.4C1128.9 1422.6 1139.5 1416 1148 1410.7C1162.6 1401.8 1172.4 1395.7 1188.4 1385.8C1192.1 1383.4 1196.3 1380.5 1197.7 1379.3C1199 1378 1200.5 1377 1201.1 1377C1202 1377 1207.4 1373.8 1220.5 1365.6C1223.8 1363.5 1237.3 1355.1 1250.5 1347C1273 1333.2 1293.4 1320.4 1306.8 1311.8C1309.9 1309.8 1315.4 1306.4 1319 1304.4C1322.6 1302.3 1327.6 1299.2 1330.2 1297.6C1332.8 1295.9 1338.2 1292.5 1342.4 1290C1346.5 1287.5 1350 1284.9 1350 1284.3C1350 1283.6 1350.9 1283 1352.1 1283C1353.3 1283 1361.7 1278.3 1370.9 1272.6C1380 1267 1396.5 1256.7 1407.5 1250C1431.1 1235.5 1442 1228.1 1442 1226.8C1442 1225.7 1444.5 1223 1445.7 1223C1448.7 1222.8 1458.2 1210.8 1462.5 1201.9C1465.9 1194.6 1467.9 1185.2 1468 1176.3C1468 1172.1 1467.3 1171.1 1465.5 1172.9C1464.9 1173.4 1460 1176.2 1454.5 1179.2C1449 1182.2 1437.8 1188.6 1429.5 1193.5C1421.3 1198.4 1410 1204.9 1404.5 1208C1395.2 1213.3 1379.4 1222.5 1353.8 1237.7C1343.5 1243.7 1336.8 1247.6 1309.5 1263.7C1302.9 1267.5 1289 1275.8 1278.5 1282C1268.1 1288.2 1249 1299.3 1236.2 1306.7C1223.4 1314 1211 1321.3 1208.7 1322.7C1197.8 1329.6 1183.8 1336.9 1177.5 1339.1C1171.4 1341.1 1168.6 1341.4 1156.5 1341.4C1139.6 1341.3 1130.7 1339.3 1119.2 1332.7C1115 1330.2 1103.9 1323.9 1094.5 1318.5C1085.2 1313.2 1073.5 1306.5 1068.5 1303.8C1063.6 1301 1056.4 1296.8 1052.5 1294.5C1048.7 1292.2 1040.3 1287.2 1034 1283.5C1027.7 1279.8 1018 1273.9 1012.5 1270.5C1001.4 1263.6 989.6 1256.7 968 1244.5C948.9 1233.7 928.8 1222.1 919.8 1216.6C915.8 1214.2 910.2 1211.1 907.4 1209.7L902.2 1207.1L896.4 1210.7C893.1 1212.7 887.1 1216.2 883 1218.4C878.9 1220.7 870.1 1225.7 863.5 1229.6C856.9 1233.5 846.8 1239.4 841 1242.7C811.9 1259.4 787.7 1273.7 758 1291.7C745.1 1299.5 724.5 1311.5 712.5 1318.3C708.1 1320.7 699.1 1325.8 692.6 1329.5C673.7 1340.3 658.6 1343.6 639.6 1341.1C626.1 1339.3 623.6 1338.1 589.5 1318C582.4 1313.7 572.2 1307.8 567 1304.7C531.3 1283.9 514.4 1273.9 499.6 1265C479.2 1252.7 467.8 1246 437.5 1228.5C396.4 1204.8 384.6 1197.9 376 1192.6C367 1187 355.9 1180.7 344.8 1174.7L338 1171V1179C338 1191.6 343 1204.2 352.7 1216.4C358.3 1223.3 369.5 1232.3 381.8 1239.7C396.7 1248.7 425 1266 432.7 1270.8C437.3 1273.7 441.5 1276 442.1 1276C442.8 1276 443.8 1276.7 444.4 1277.4C445 1278.2 448.2 1280.4 451.5 1282.3C454.8 1284.2 462.9 1289.1 469.5 1293.2C476.1 1297.4 493 1307.8 507 1316.5C521 1325.2 543.8 1339.4 557.5 1348C571.3 1356.7 589.7 1368.1 598.5 1373.5C607.3 1378.9 621.7 1387.9 630.5 1393.5C639.3 1399.1 651.2 1406.7 657 1410.2C662.8 1413.8 674.9 1421.3 684 1427C711.8 1444.3 721 1449.9 734.5 1458C745.8 1464.6 763.3 1475.5 780.5 1486.5C783.3 1488.3 790.5 1492.8 796.5 1496.5C802.6 1500.3 817.6 1509.7 830 1517.5C859.8 1536.2 867.4 1540.5 877.2 1544.1C895.2 1550.7 907.7 1551.1 924.5 1545.5ZM1128.1 1257.5C1130.1 1256 1132.6 1253.1 1133.6 1250.7C1135.4 1246.7 1135.5 1242.3 1135.5 1144.5V1042.5L1132.7 1036.6C1126.6 1023.6 1120.2 1017.9 1096.5 1004.5C1082.4 996.6 1066.9 987.6 1062 984.5C1056.6 981.1 1037.6 969.9 1027 964C1021.8 961 1013 955.9 1007.5 952.5C989.4 941.3 975.1 933 973.9 933C971.5 933 949.2 945.2 943.8 949.6C939.6 952.9 937.3 955.8 935 960.3L931.9 966.6L932.2 1051.5L932.5 1136.5L935.5 1142.4C939.1 1149.4 945.5 1155.4 956.4 1161.9C960.8 1164.5 967.7 1168.7 971.5 1171C996.4 1186.5 1017.1 1198.9 1048.5 1217.3C1058.4 1223.1 1078.4 1235.1 1093 1243.9C1107.6 1252.7 1120.6 1259.9 1121.9 1259.9C1123.3 1260 1126 1258.9 1128.1 1257.5ZM616.2 1252.9C618.5 1251.1 620.4 1248.4 621 1246.2C621.8 1243.6 622 1210.2 621.8 1138L621.5 1033.5L618.4 1027C611.9 1013.5 605.6 1008.6 559 980.8C551.6 976.3 541 970 535.5 966.7C530 963.4 517 955.5 506.5 949C487.6 937.4 456.4 918.7 423 899.1C413.4 893.4 395 882.5 382.2 874.8C369.4 867.1 357.5 860.4 355.7 859.9C353.7 859.3 351.4 859.4 349.4 860C345.3 861.4 340.2 866.8 339 871.1C338.4 873.2 338 912.8 338 977.1C338 1091 337.7 1085.5 344.7 1094.1C349.3 1099.7 352.3 1101.9 366.5 1110.3C372.6 1113.8 386.8 1122.3 398.2 1129.1C419.3 1141.8 445.8 1157.4 454 1162.1C456.5 1163.5 466.6 1169.6 476.5 1175.7C499.8 1189.9 527.5 1206.6 538.1 1212.8C552.8 1221.4 590.3 1244.2 595 1247.4C601.4 1251.7 609.2 1256 611 1256C611.9 1256 614.2 1254.6 616.2 1252.9ZM671.2 973.5C677.5 971.3 691.1 963.8 713 950.5C722.8 944.6 743.4 932.3 757.5 924C761.9 921.4 770.4 916.3 776.4 912.6C782.4 909 787.8 906 788.4 906C789.5 906 783.5 902.3 771 895C766.9 892.7 761 889.3 758 887.5C755 885.8 746.9 881 740 877.1C733.1 873.1 725 868.3 722 866.6C713.8 861.7 692.7 849.4 682.5 843.5C677.6 840.6 669.2 835.9 664 833C658.8 830.1 647.1 823.3 638 818C621.7 808.4 599.3 795.4 579 783.8C558.8 772.2 554.9 768.9 546.8 756.9C543.8 752.5 541.5 747.6 540 741.9C537.7 734 537.6 731.5 537.2 699.8L536.8 666.1L532.7 668.2C530.4 669.3 511.2 680.4 490 692.8C443.4 720.1 442.1 720.9 429.5 728C424 731.1 415.5 736.1 410.5 739C405.6 741.8 394.5 748.1 386 752.9C357.9 768.8 353.3 772.4 349.5 781.3C344.4 793.6 351.5 804 373.4 816.1C380.5 820 396.1 829.1 407.9 836.2C419.8 843.4 444.1 857.8 462 868.4C479.9 879 497.4 889.5 501 891.8C504.6 894.1 510.9 897.8 515 900.1C519.1 902.4 525 905.8 528 907.6C547.1 918.9 561 927.3 573.9 935.2C581.9 940.2 593.2 947.1 599 950.5C604.8 953.9 612.5 958.6 616.3 960.8C620 963.1 623.2 965 623.5 965C623.7 965 625.5 966.1 627.5 967.4C630.8 969.7 643.2 974.3 649 975.4C653.3 976.2 666.6 975 671.2 973.5ZM1167.7 973.1C1171 972 1182.6 965.8 1193.6 959.2C1211.9 948.2 1250.7 925 1262.5 917.8C1267.7 914.6 1282.6 905.8 1299 896.2C1304.2 893.2 1311.2 889 1314.5 886.9C1320.3 883.3 1345.9 868 1384 845.4C1402.1 834.6 1416.6 826.1 1436.2 814.6C1448.5 807.4 1454 802 1456.5 794.7C1458.1 789.9 1458.2 788.6 1457.1 784.8C1455.1 778 1450.4 771.6 1444.7 767.8C1441.9 765.9 1432.1 760.1 1423 755C1413.9 749.9 1398.4 740.9 1388.5 735.2C1378.6 729.4 1367.4 722.9 1363.5 720.7C1359.7 718.5 1350.7 713.3 1343.5 709C1325.7 698.5 1307.9 688.1 1286 675.6L1267.5 665L1266.9 700.7C1266.4 734.6 1266.3 736.8 1264.1 743C1261.8 749.5 1255.6 760.5 1251.6 764.9C1246.9 770.1 1221.1 786.9 1198.9 799.1C1191.7 803 1176 812.2 1160 821.8C1153.7 825.6 1139.7 833.6 1128 840.2C1112.3 849.1 1070.5 873.9 1050 886.5C1045.3 889.3 1036.4 894.6 1030.3 898.1C1024.1 901.6 1019 904.7 1019 905C1019 905.3 1021.1 906.6 1023.7 908C1026.3 909.4 1030.9 912 1034 913.9C1037 915.8 1044 919.8 1049.5 923C1060.3 929.1 1080.8 941.3 1095.8 950.4C1100.9 953.5 1105.2 956 1105.4 956C1105.6 956 1108.7 957.7 1112.1 959.8C1128.4 969.6 1134.5 972.3 1147.5 975.4C1151.2 976.3 1161.8 975.1 1167.7 973.1ZM863.2 869.7C868.1 866.8 870.7 863.3 872 857.9C872.7 854.8 873 820.9 872.8 744.5L872.5 635.5L869.6 629.7C863.1 616.3 852 606.1 830.2 593.5C815.8 585 790.8 570.3 768 556.8C732.4 535.7 716.6 526.4 710.5 523C707.2 521.2 699.1 516.4 692.5 512.5C678.3 504 667.3 497.6 632.5 477.5C627.6 474.7 620.1 470.2 616 467.5C605.9 461 600.5 458.7 597.2 459.5C593.1 460.5 589.1 463.8 586.7 468.3L584.5 472.5V587V701.5L586.7 705.6C589.3 710.4 598.2 719.5 602.5 721.7C604.2 722.6 607.3 724.5 609.5 726.1C611.8 727.6 618.3 731.4 624 734.5C629.8 737.6 639.7 743.2 646 747C652.3 750.7 666.7 759.2 678 765.8C689.3 772.3 702.9 780.4 708.3 783.6C713.6 786.9 720.6 791.1 723.8 793C727 794.9 735.2 799.8 742.1 803.9C753.9 810.9 760.2 814.6 782.8 827.6C792.2 833.1 799.4 837.4 833.7 858.1C851.8 869.1 857 872 858.5 872C859 872 861.2 871 863.2 869.7ZM918.2 570.7C922.3 569 932.3 563.3 954.5 550.3C987 531.2 1035.4 503.3 1055 492.3C1056.9 491.2 1064.1 487 1071 483C1077.9 479 1093.4 470.2 1105.4 463.3C1117.5 456.5 1133.7 447.2 1141.4 442.6C1149.2 438 1161.1 431.2 1168 427.5C1190.4 415.3 1198 408.4 1198 400.4C1198 395.9 1193.4 387.5 1188.5 383.3C1186.2 381.2 1175.3 374.6 1164.4 368.6C1153.4 362.6 1140.5 355.3 1135.5 352.5C1125.8 346.9 1116 341.3 1101 333C1095.8 330 1087.9 325.5 1083.5 323C1079.1 320.4 1073.5 317.2 1071 315.8C1068.5 314.5 1054.1 306.2 1039 297.5C1023.9 288.8 1009.8 280.8 1007.7 279.7C1005.5 278.7 1001 276.2 997.7 274.1C994.3 272.1 982.5 265.5 971.5 259.6C960.5 253.6 947.2 246.3 941.9 243.4C936.7 240.4 928.6 236.6 923.9 234.8C916.2 231.9 914.5 231.6 903.5 231.6C885.8 231.5 883 232.7 835 258.9C828.7 262.4 818.1 268.2 811.5 271.8C799 278.6 779.8 289.4 737.5 313.5C723.8 321.3 704.2 332.4 694 338C661.8 356 626.7 376.1 619.9 380.6C613.4 384.9 609.1 389.8 607 395.4C604.5 402.1 611.6 412.8 623 419.2C625.5 420.6 632.2 424.3 638 427.5C643.8 430.7 655.9 437.7 665 443C674.1 448.3 683.3 453.7 685.5 454.9C687.7 456.2 693.8 459.7 699 462.8C704.2 465.8 712.8 470.8 718 473.8C723.2 476.8 730.2 480.8 733.5 482.8C736.8 484.7 741.4 487.3 743.6 488.6C756.1 495.4 825.1 535.1 852.8 551.4C881.6 568.4 887.9 571.4 897.3 572.8C903.4 573.7 913.5 572.7 918.2 570.7Z" fill="#182636"/>
<path d="M486.025 1621.8C481.625 1619.2 481.725 1617.6 486.325 1617.2C489.925 1616.8 491.325 1618.1 491.325 1621.8C491.325 1624.5 490.825 1624.5 486.025 1621.8Z" fill="#8BA0B1"/>
<path d="M890.226 1551.5C873.526 1548.3 865.126 1544.2 827.326 1520.5C814.926 1512.7 799.926 1503.3 793.826 1499.5C787.826 1495.8 780.626 1491.3 777.826 1489.5C760.626 1478.5 743.126 1467.6 731.826 1461C718.326 1452.9 709.126 1447.3 681.326 1430C672.226 1424.3 660.126 1416.8 654.326 1413.2C648.526 1409.7 636.626 1402.1 627.826 1396.5C619.026 1390.9 604.626 1381.9 595.826 1376.5C587.026 1371.1 568.626 1359.7 554.826 1351C541.126 1342.4 518.326 1328.2 504.326 1319.5C490.326 1310.8 473.426 1300.4 466.826 1296.2C460.226 1292.1 452.125 1287.2 448.826 1285.3C445.525 1283.4 442.326 1281.4 441.826 1280.7C441.225 1280 440.225 1279.4 439.525 1279.2C438.826 1279.1 434.525 1276.7 430.025 1273.8C422.325 1269 394.025 1251.7 379.125 1242.7C360.825 1231.6 348.025 1219.6 342.125 1207.5C336.825 1196.9 335.325 1190.6 335.025 1178.1C334.925 1171.5 335.125 1165.9 335.525 1165.5C335.925 1165.1 339.525 1166.7 343.525 1169C347.525 1171.3 356.225 1176.2 362.825 1179.9C369.425 1183.6 377.725 1188.5 381.325 1190.7C387.925 1194.9 399.525 1201.6 440.826 1225.5C471.126 1243 482.525 1249.7 502.926 1262C517.726 1270.9 534.626 1280.9 570.326 1301.7C575.526 1304.8 585.726 1310.7 592.826 1315C626.726 1335 629.326 1336.2 642.426 1338C658.126 1340.2 671.626 1336.9 689.926 1326.5C696.426 1322.8 705.426 1317.7 709.826 1315.3C721.826 1308.5 742.426 1296.5 755.326 1288.7C785.026 1270.7 809.326 1256.4 838.326 1239.7C844.126 1236.4 855.126 1230 862.826 1225.5C870.526 1221 878.726 1216.3 881.026 1215.1C883.426 1213.9 887.926 1211.2 891.226 1209.1C901.526 1202.5 902.126 1202.4 909.426 1206.1C912.926 1207.8 919.126 1211.2 923.126 1213.6C932.126 1219.1 952.226 1230.7 971.326 1241.5C992.926 1253.7 1004.73 1260.6 1015.83 1267.5C1021.33 1270.9 1031.03 1276.8 1037.33 1280.5C1043.63 1284.2 1052.03 1289.2 1055.83 1291.5C1059.73 1293.8 1066.93 1298 1071.83 1300.8C1076.83 1303.5 1088.53 1310.2 1097.83 1315.5C1107.23 1320.9 1118.33 1327.2 1122.53 1329.7C1133.23 1335.8 1143.13 1338.3 1156.83 1338.3C1165.73 1338.3 1169.13 1337.9 1174.83 1336C1181.13 1333.9 1195.03 1326.7 1206.03 1319.7C1208.33 1318.3 1220.73 1311 1233.53 1303.7C1246.33 1296.3 1265.43 1285.2 1275.83 1279C1294.43 1267.9 1303.23 1262.8 1328.33 1248C1335.23 1244 1345.53 1237.9 1351.33 1234.5C1376.43 1219.7 1392.53 1210.3 1401.83 1205C1407.33 1201.9 1418.63 1195.4 1426.83 1190.5C1435.13 1185.6 1446.33 1179.2 1451.83 1176.2C1457.33 1173.2 1463.43 1169.7 1465.33 1168.4C1470.93 1164.5 1471.33 1164.9 1471.33 1174.8C1471.33 1188.1 1469.73 1196.6 1465.83 1204.9C1461.53 1213.8 1452.03 1225.8 1449.03 1226C1447.83 1226 1445.33 1228.7 1445.33 1229.8C1445.33 1231.1 1434.43 1238.5 1410.83 1253C1399.83 1259.7 1383.23 1270 1373.83 1275.8C1364.53 1281.6 1356.13 1286.3 1355.13 1286.3C1354.13 1286.2 1353.33 1286.7 1353.33 1287.3C1353.33 1288 1349.83 1290.5 1345.73 1293C1341.53 1295.5 1336.13 1298.9 1333.53 1300.6C1330.93 1302.2 1325.93 1305.3 1322.33 1307.4C1318.73 1309.4 1313.23 1312.8 1310.13 1314.8C1296.73 1323.4 1276.33 1336.2 1253.83 1350C1240.63 1358.1 1227.13 1366.5 1223.83 1368.6C1210.73 1376.8 1205.33 1380 1204.43 1380C1203.83 1380 1202.33 1381 1201.03 1382.3C1199.63 1383.5 1195.43 1386.4 1191.73 1388.8C1175.73 1398.7 1165.93 1404.8 1151.33 1413.7C1142.83 1419 1132.23 1425.6 1127.83 1428.4C1111.33 1439.2 1095.73 1448.3 1094.13 1448.2C1093.13 1448.2 1092.33 1448.7 1092.33 1449.4C1092.33 1450.9 1073.53 1462.6 1071.73 1462.2C1070.93 1462 1070.33 1462.5 1070.33 1463.3C1070.33 1464.1 1069.13 1465.2 1067.63 1465.9C1066.23 1466.6 1062.73 1468.6 1059.93 1470.4C1057.13 1472.2 1046.33 1479 1035.83 1485.5C1025.43 1492 1009.03 1502.2 999.526 1508.1C989.626 1514.3 981.626 1518.7 980.826 1518.3C979.926 1518 979.326 1518.4 979.326 1519.2C979.326 1520.8 972.626 1524.6 970.626 1524.2C969.926 1524 969.326 1524.6 969.326 1525.4C969.326 1526.4 968.726 1526.7 967.826 1526.4C966.926 1526 966.326 1526.3 966.326 1527.1C966.326 1527.9 965.126 1529.2 963.526 1530.1C962.026 1531 955.626 1534.7 949.326 1538.4C928.226 1550.8 909.026 1555.1 890.226 1551.5ZM915.426 1482C922.326 1480.7 930.126 1477.6 938.326 1472.8C941.926 1470.7 947.826 1467.3 951.526 1465.3C955.326 1463.2 958.326 1460.9 958.326 1460.3C958.326 1459.6 959.226 1459 960.426 1459C963.126 1459 975.326 1451.9 975.326 1450.3C975.326 1449.6 976.326 1449 977.626 1449C980.126 1448.9 983.326 1446.8 983.326 1445.1C983.326 1444.5 984.426 1444 985.826 1444C987.426 1444 988.326 1443.4 988.326 1442.5C988.326 1441.7 989.226 1441 990.226 1441C993.226 1441 995.326 1439.9 995.326 1438.4C995.326 1437.6 996.226 1437 997.226 1437C998.326 1437 1002.73 1434.8 1007.03 1432.1C1011.33 1429.5 1020.93 1423.6 1028.33 1419C1035.73 1414.4 1044.53 1409 1047.83 1407C1056.13 1401.8 1086.13 1383.7 1090.13 1381.4C1091.83 1380.4 1093.33 1379 1093.33 1378.3C1093.33 1377.6 1093.93 1377 1094.73 1377C1096.93 1377 1105.23 1371.7 1105.33 1370.2C1105.33 1369.2 1102.63 1369 1094.13 1369.1C1082.83 1369.3 1071.13 1368.3 1049.33 1365.5C1026.63 1362.6 1021.83 1361.8 1020.13 1360.9C1019.13 1360.4 1017.33 1360 1016.13 1360C1013.83 1360 1000.23 1356.5 996.826 1355C995.726 1354.6 987.926 1351.8 979.426 1349C970.926 1346.1 960.126 1342 955.426 1339.8C937.526 1331.5 913.026 1318.5 904.226 1312.7C901.826 1311.1 901.626 1311.1 899.726 1312.9C898.626 1313.9 896.726 1315.1 895.526 1315.4C894.326 1315.8 893.326 1316.6 893.326 1317.1C893.326 1317.6 892.626 1318 891.826 1318C891.026 1318 890.326 1318.5 890.326 1319C890.326 1319.6 889.626 1320 888.826 1320C888.026 1320 887.326 1320.3 887.326 1320.8C887.326 1321.2 884.226 1323.1 880.326 1324.9C876.526 1326.8 873.326 1328.7 873.326 1329C873.326 1330.2 859.726 1337 857.526 1337C856.426 1337 855.026 1337.6 854.426 1338.3C853.426 1339.5 849.426 1341.5 842.826 1344C838.226 1345.7 831.726 1348.3 829.826 1349.1C823.626 1351.6 813.026 1354.8 807.326 1355.9C793.126 1358.5 785.326 1360.4 785.326 1361.2C785.326 1361.6 783.926 1362 782.226 1362C777.526 1362 765.326 1364.2 765.326 1365.1C765.326 1365.5 761.326 1365.9 756.326 1365.9C751.426 1365.9 746.826 1366.2 746.226 1366.6C745.526 1367 734.526 1367.6 721.626 1367.9L698.326 1368.5L707.626 1374.6C712.626 1377.9 722.726 1384.2 729.826 1388.5C737.026 1392.8 747.826 1399.5 753.826 1403.3C759.926 1407.1 770.226 1413.5 776.826 1417.5C783.426 1421.5 793.226 1427.5 798.626 1430.9C804.026 1434.2 809.126 1437 809.926 1437C810.726 1437 811.326 1437.5 811.326 1438C811.326 1438.6 813.426 1440 816.126 1441.3C818.726 1442.5 821.026 1443.8 821.126 1444.3C821.326 1444.7 822.126 1445 822.926 1445C823.726 1445 824.326 1445.5 824.326 1446C824.326 1446.6 825.026 1447 825.826 1447C826.626 1447 827.326 1447.4 827.326 1448C827.326 1448.5 828.426 1449.2 829.726 1449.6C831.126 1449.9 832.426 1450.8 832.726 1451.6C833.026 1452.4 834.226 1453 835.326 1453C836.426 1453 837.326 1453.4 837.326 1454C837.326 1454.5 838.426 1455.2 839.826 1455.6C841.226 1455.9 842.326 1456.6 842.326 1457.1C842.326 1457.5 845.326 1459.6 849.126 1461.6C852.826 1463.6 858.726 1467.1 862.326 1469.3C881.226 1481 898.526 1485.1 915.426 1482Z" fill="#8BA0B1"/>
<path d="M1119.43 1263.3C1118.13 1263 1100.33 1252.8 1079.93 1240.6C1059.53 1228.3 1036.43 1214.7 1028.63 1210.2C1020.83 1205.7 1009.53 1199 1003.63 1195.3C997.725 1191.7 989.725 1186.8 985.825 1184.5C982.025 1182.2 975.025 1177.9 970.325 1175C965.625 1172.1 958.325 1167.6 954.125 1165.1L946.325 1160.5V1060.7C946.325 952 946.025 958 951.925 950.3C953.325 948.5 956.625 945.9 959.325 944.5C963.525 942.4 965.625 942 973.325 942C981.325 942 983.425 942.4 990.125 945.1C994.325 946.9 998.525 948.8 999.325 949.5C1000.13 950.1 1002.83 951.8 1005.33 953.2C1007.83 954.6 1015.03 958.9 1021.33 962.7C1027.73 966.6 1035.13 970.9 1037.83 972.3C1040.63 973.6 1047.73 977.8 1053.63 981.4C1059.53 985 1066.13 988.9 1068.33 990C1072.43 992.1 1079.33 992.7 1079.33 991C1079.33 990.4 1081.23 991 1083.63 992.3C1085.93 993.7 1093.23 997.8 1099.83 1001.5C1123.63 1015 1129.93 1020.6 1136.03 1033.6L1138.83 1039.5V1144.5C1138.83 1245.2 1138.73 1249.7 1136.93 1253.7C1133.93 1260.3 1126.13 1264.6 1119.43 1263.3Z" fill="#8BA0B1"/>
<path d="M601.825 1256.2C599.125 1254.7 594.825 1252.1 592.325 1250.4C587.625 1247.2 550.126 1224.4 535.425 1215.8C524.826 1209.6 497.126 1192.9 473.825 1178.7C463.925 1172.6 453.825 1166.5 451.325 1165.1C443.025 1160.4 416.425 1144.7 395.525 1132.1C384.125 1125.3 371.825 1117.9 368.025 1115.8C361.225 1111.8 359.725 1110 363.325 1110C365.325 1110 365.325 1109.3 365.325 1032.3C365.425 989.5 365.625 945.4 365.825 934.2C366.225 909.8 367.025 907.4 376.625 900.1C382.125 896 382.925 895.7 388.625 895.7C392.025 895.8 396.525 896.1 398.725 896.5C402.925 897.3 414.625 903.2 426.325 910.3C437.125 917 456.025 928.2 461.825 931.5C464.625 933 474.025 938.3 482.825 943.3C491.626 948.2 500.225 952.9 501.826 953.7C503.525 954.4 505.525 955.5 506.326 956C507.126 956.5 514.326 960.6 522.326 965.1C530.326 969.6 539.725 974.9 543.326 976.9C546.925 978.9 552.626 981.9 556.126 983.5C562.025 986.2 562.625 986.3 567.225 985.1C572.925 983.7 573.325 983.8 586.125 992C610.825 1007.9 616.425 1012.9 621.725 1024L624.826 1030.5L625.125 1138C625.326 1212.3 625.125 1246.6 624.326 1249.2C623.725 1251.4 621.826 1254.1 619.525 1255.9C614.625 1260 608.825 1260.1 601.825 1256.2Z" fill="#8BA0B1"/>
<path d="M673.326 974.4C673.326 973.1 673.726 972 674.326 972C674.826 972 676.026 971.1 677.126 970C679.226 967.8 690.326 965.9 690.326 967.8C690.326 969 682.426 973.5 676.626 975.7C673.426 976.8 673.326 976.8 673.326 974.4Z" fill="#8BA0B1"/>
<path d="M1124.73 971.4C1119.83 968.8 1113.13 965.1 1109.83 963.1C1106.53 961.1 1102.53 958.9 1101.03 958.1C1097.03 956 1097.73 955 1103.33 955C1107.13 955 1108.33 955.4 1108.33 956.5C1108.33 957.4 1109.23 958 1110.83 958C1112.63 958 1113.33 958.5 1113.33 960C1113.33 961.6 1114.03 962 1116.83 962C1119.93 962 1120.43 962.3 1121.03 965C1121.53 967.8 1121.83 968 1126.43 968C1129.13 968 1131.33 968.4 1131.33 968.9C1131.33 969.4 1132.73 970.3 1134.33 971C1137.73 972.4 1138.53 976 1135.43 976C1134.43 976 1129.63 973.9 1124.73 971.4Z" fill="#8BA0B1"/>
<path d="M625.225 970.7C620.925 967.8 620.925 966.6 625.225 966.2C628.925 965.8 630.325 967.1 630.325 970.8C630.325 973.6 629.425 973.6 625.225 970.7Z" fill="#8BA0B1"/>
<path d="M1048.83 927.1C1043.33 924 1037.03 920.4 1034.83 919C1032.63 917.6 1026.83 914.2 1021.83 911.5C1016.93 908.7 1012.83 905.9 1012.83 905.1C1012.83 904.4 1018.93 900.2 1026.33 895.9C1033.73 891.6 1043.43 885.9 1047.83 883.2C1069.63 869.8 1110.03 845.9 1125.33 837.2C1137.03 830.6 1151.03 822.6 1157.33 818.8C1173.33 809.2 1189.03 800 1196.23 796.1C1218.43 783.9 1244.23 767.1 1248.93 761.9C1251.83 758.7 1259.33 746.6 1259.33 745.1C1259.33 744.5 1260.03 744 1260.83 744C1261.63 744 1262.33 744.5 1262.33 745C1262.33 746 1270.03 756.9 1271.53 758C1271.93 758.3 1273.53 761.2 1275.03 764.5C1277.63 770 1277.83 771.5 1277.83 782.5C1277.83 794.1 1277.73 794.8 1274.53 801.3C1272.73 805 1270.83 808 1270.23 808C1269.73 808 1269.33 808.5 1269.33 809.2C1269.33 810.8 1264.23 816 1262.73 816C1262.03 816 1260.83 816.6 1260.13 817.3C1258.73 818.5 1254.73 820.7 1244.83 825.8C1239.13 828.7 1230.03 834.1 1229.33 835.1C1229.03 835.4 1227.03 836.5 1224.83 837.6C1222.63 838.6 1220.23 840 1219.63 840.6C1218.93 841.3 1216.33 842.6 1213.83 843.5C1211.33 844.5 1209.33 845.6 1209.33 846C1209.33 846.4 1207.53 847.5 1205.33 848.5C1203.13 849.5 1201.33 850.6 1201.33 851C1201.33 851.3 1199.03 852.4 1196.23 853.4C1193.43 854.5 1189.83 856.6 1188.23 858.1C1186.53 859.7 1184.43 861 1183.43 861C1182.43 861 1181.33 861.7 1180.93 862.5C1180.63 863.3 1179.73 864 1178.83 864C1178.03 864 1176.43 864.9 1175.33 866C1174.23 867.1 1172.43 868 1171.33 868C1170.23 868 1169.33 868.3 1169.33 868.8C1169.33 869.2 1166.83 870.6 1163.83 871.9C1160.83 873.2 1158.33 874.6 1158.33 875C1158.33 875.4 1155.63 876.8 1152.33 878C1149.03 879.2 1146.33 880.5 1146.33 880.9C1146.33 881.2 1144.33 882.3 1141.83 883.3C1139.33 884.4 1137.33 885.5 1137.33 886C1137.33 886.4 1136.03 887 1134.43 887.3C1132.83 887.6 1130.83 888.6 1130.03 889.5C1129.13 890.3 1128.03 891 1127.43 891C1126.93 891 1125.83 891.6 1125.13 892.3C1124.43 892.9 1121.03 894.8 1117.63 896.4C1114.13 898 1111.33 899.7 1111.33 900.2C1111.33 900.6 1110.73 901 1109.93 901C1109.13 901 1107.73 901.7 1106.93 902.5C1106.13 903.4 1102.83 905.3 1099.63 906.7C1096.43 908.1 1093.63 909.6 1093.33 909.9C1093.03 910.3 1088.43 912.8 1083.03 915.5C1077.63 918.3 1072.43 921.2 1071.43 922C1070.53 922.8 1067.53 924.7 1064.83 926.1C1062.13 927.5 1059.63 929.6 1059.33 930.7C1058.83 932.6 1058.03 932.3 1048.83 927.1Z" fill="#8BA0B1"/>
<path d="M738.326 924.9C732.026 921 720.326 914.4 712.326 910.1C674.826 889.8 646.226 874 643.326 872C641.926 871 637.226 868.4 632.826 866.1C628.426 863.9 622.626 860.8 619.826 859.2C608.326 852.6 567.726 829.8 554.526 822.5C535.826 812.2 530.126 806.2 527.426 794C524.226 780.1 528.526 762.5 537.526 752.5C539.126 750.9 540.326 748.9 540.326 748.3C540.326 747.6 541.026 746.9 541.826 746.9C542.626 746.8 543.726 746.7 544.226 746.6C544.726 746.5 547.226 749.7 549.826 753.5C558.226 765.9 562.026 769.1 582.326 780.8C602.626 792.4 625.026 805.4 641.326 815C650.426 820.3 662.126 827.1 667.326 830C672.526 832.9 680.926 837.6 685.826 840.5C705.326 851.8 720.026 860.4 724.326 863C726.826 864.5 731.526 867.2 734.826 869.1C738.126 870.9 745.326 875.1 750.826 878.3C763.726 885.9 776.726 893.5 787.126 899.5C791.726 902.2 795.626 904.7 795.926 905.1C796.126 905.5 794.226 907.1 791.626 908.6C788.926 910.1 782.826 913.8 777.826 916.8C761.526 926.8 752.226 932 751.026 931.9C750.326 931.9 744.626 928.7 738.326 924.9Z" fill="#8BA0B1"/>
<path d="M506.225 899.7C501.925 896.8 501.925 895.6 506.225 895.2C509.925 894.8 511.325 896.1 511.325 899.8C511.325 902.6 510.425 902.6 506.225 899.7Z" fill="#8BA0B1"/>
<path d="M851.025 873C848.925 871.8 839.925 866.5 831.025 861.1C796.725 840.4 789.525 836.1 780.125 830.6C757.525 817.6 751.225 813.9 739.425 806.9C732.525 802.8 724.325 797.9 721.125 796C717.925 794.1 710.925 789.9 705.625 786.6C700.225 783.4 686.625 775.3 675.325 768.8C664.025 762.2 649.625 753.7 643.325 750C637.025 746.2 627.325 740.7 621.726 737.7C609.226 730.9 607.326 729.7 607.326 728.8C607.326 728.3 608.126 728 609.126 728C610.826 728 610.826 723.6 610.526 635.3C610.326 583.3 610.626 536.3 611.126 528.5C612.426 509.8 613.626 507 623.625 501.3C626.625 499.5 629.125 499 634.325 499C638.125 499 641.425 499.4 641.725 499.9C642.025 500.4 643.525 501.1 644.925 501.4C647.725 502.1 660.125 508.9 668.325 514.1C671.125 515.9 700.825 533.3 712.325 539.9C716.425 542.3 727.125 548.4 736.125 553.6C745.125 558.8 752.625 563 752.925 563C753.225 563 755.925 564.6 758.925 566.5C761.925 568.4 764.625 570 764.825 570C765.125 570 769.325 572.4 774.125 575.4C778.925 578.3 787.525 583.4 793.325 586.7C799.125 590.1 805.825 594 808.325 595.4C814.625 599.2 824.425 603.7 827.925 604.4C829.525 604.8 833.725 604.6 837.325 604C851.625 601.6 850.925 601.5 855.525 604.9C861.125 609 869.325 619.3 872.925 626.7L875.825 632.5L876.125 744.5C876.325 823.1 876.025 857.8 875.325 860.9C872.425 872.4 860.725 878.2 851.025 873Z" fill="#8BA0B1"/>
<path d="M739.426 490.7C733.226 487.5 733.026 486 738.726 486C742.726 486 743.326 486.3 743.926 488.5C745.026 492.7 744.026 493.2 739.426 490.7Z" fill="#8BA0B1"/>
<path d="M873.396 1736.9C816.796 1735 738.296 1722.7 687.896 1707.9C637.996 1693.2 614.196 1684.6 573.896 1666.8C544.696 1653.9 488.396 1624.4 487.196 1621.4C486.896 1620.6 486.296 1620.3 485.796 1620.6C484.796 1621.2 478.896 1617.8 457.396 1604C425.296 1583.5 390.496 1557.3 352.396 1525C338.096 1512.9 286.496 1460.7 275.296 1447C272.396 1443.4 266.996 1436.8 263.196 1432.4C251.396 1418.3 222.496 1380.3 214.296 1368C168.996 1300.2 137.096 1234.2 113.196 1159.5C103.296 1128.3 89.1958 1071 85.8958 1048C85.2958 1043.9 84.3958 1038.3 83.8958 1035.5C82.2958 1027 78.9958 1001.2 77.4958 985C72.1958 930.5 72.9958 857.4 79.3958 806.2C89.4958 725.6 111.396 645.7 142.096 577C149.096 561.3 166.196 527 172.696 515.5C175.196 511.1 179.196 503.9 181.696 499.5C204.196 459.5 227.196 426 262.396 382C281.096 358.5 291.196 347.5 326.296 312.5C361.796 277 383.696 258.4 428.096 226C477.096 190.2 548.696 151.2 609.196 127.4C651.596 110.7 684.996 100.7 735.296 89.4C760.696 83.8 802.196 77.7 842.896 73.8C864.496 71.7 946.396 72.1 970.396 74.3C1020.2 79 1082.8 90.4 1120.4 101.6C1188.8 121.9 1242.1 145 1311.4 184.2C1332.4 196.1 1362.1 215.3 1381.9 229.9C1424.1 260.8 1455.9 288.2 1489.7 322.8C1522.3 356.2 1541.5 378.5 1564.4 409.5C1570.9 418.3 1577.4 427.1 1578.8 429C1581.7 432.8 1594.5 452 1605.4 469C1629.1 505.7 1659.6 566.7 1677.7 613.5C1699.5 669.9 1717.2 738.8 1724.9 796.5C1735.1 874.4 1733.8 967.3 1721.3 1038C1711.9 1091.2 1699.6 1140.1 1685.1 1181.5C1661.2 1249.6 1626 1318.4 1585.3 1376C1574.4 1391.4 1571.5 1395.4 1565.6 1403C1562.4 1407.1 1557.9 1413 1555.6 1416C1523.6 1458.3 1460.7 1521.2 1416.1 1555.4C1371.8 1589.3 1339.2 1610.9 1296.9 1634.3C1257.6 1655.9 1219.2 1673.6 1179.9 1688.3C1085.1 1723.6 978.096 1740.6 873.396 1736.9ZM950.896 1651C1035.5 1645 1111.6 1626.8 1187.4 1594.5C1216.7 1582.1 1265.3 1556.7 1297.4 1537C1307 1531.2 1339.7 1509.3 1343.4 1506.3C1345 1505 1351.8 1499.8 1358.4 1494.8C1407.9 1457.2 1462.2 1401.8 1502.8 1347.5C1515.7 1330.2 1538.9 1294.9 1547.4 1279.5C1551.7 1271.8 1557.6 1261.2 1560.5 1256C1570.9 1237.4 1592.6 1190.1 1600.2 1169.5C1616.7 1124.7 1629.5 1075.4 1637.5 1026.5C1645.1 979.5 1647.2 951.7 1647.3 901.5C1647.3 857.4 1646.2 840.1 1640.4 800C1631.3 737.3 1611.9 670.1 1586.1 612C1549.6 529.9 1506.6 464.2 1446 398C1420 369.6 1374.4 328.5 1343.9 305.9C1338 301.5 1313.8 284.8 1305.9 279.6C1301.8 276.9 1297.3 273.9 1295.9 273C1274.9 259.1 1217.1 228.3 1185.8 214.6C1122.3 186.5 1057.5 168.9 987.396 160.5C944.796 155.5 900.596 153.7 869.396 155.9C771.696 162.7 687.996 183.4 606.396 221C552.396 245.8 511.496 269.4 467.296 301.2C420.396 334.9 362.596 390.3 324.496 438C313.596 451.7 312.296 453.4 292.996 480.5C243.996 549.2 203.796 634 183.896 710.5C182.196 717.1 179.896 725.9 178.796 730C168.896 767.6 161.196 822.7 158.696 873.3C156.496 918.3 161.296 987.3 169.996 1034.4C171.596 1043.3 173.796 1055.1 174.896 1060.7C180.996 1094.1 199.196 1155.2 212.596 1187.5C230.396 1230.5 254.096 1275.6 278.596 1312.9C292.696 1334.5 318.396 1368.3 334.796 1387C399.696 1460.9 457.296 1508.7 531.896 1550.8C570.796 1572.7 594.396 1584.8 615.896 1593.7C639.896 1603.7 647.996 1606.8 666.396 1613.1C728.596 1634.7 793.596 1647.3 866.396 1652C882.096 1653 930.896 1652.5 950.896 1651Z" fill="#FBFBFC"/>
<path d="M892.896 1485.5C880.196 1483.5 872.196 1480.4 859.396 1472.6C855.596 1470.2 849.396 1466.6 845.696 1464.6C841.896 1462.6 838.896 1460.4 838.896 1459.9C838.896 1459.3 838.496 1459.1 838.096 1459.4C837.596 1459.7 836.296 1459.2 835.296 1458.2C834.196 1457.3 832.696 1456.4 831.896 1456.2C831.096 1456 829.996 1455.3 829.396 1454.6C828.896 1453.9 828.096 1453.3 827.696 1453.4C827.296 1453.5 826.096 1452.7 824.896 1451.8C823.796 1450.8 822.896 1450.4 822.896 1450.8C822.896 1451.2 822.196 1450.6 821.396 1449.6C820.596 1448.5 819.896 1448 819.896 1448.6C819.896 1449.1 819.196 1448.6 818.296 1447.5C817.496 1446.4 816.496 1445.6 816.096 1445.6C814.896 1445.9 807.896 1442 807.896 1441.1C807.896 1440.7 807.296 1440.3 806.696 1440.3C805.996 1440.3 800.896 1437.5 795.396 1434C789.896 1430.5 779.996 1424.5 773.396 1420.5C766.796 1416.5 756.496 1410.1 750.396 1406.3C744.396 1402.5 733.596 1395.8 726.396 1391.5C710.596 1382 695.696 1372.2 694.696 1370.6C694.296 1370 693.896 1369.9 693.896 1370.4C693.896 1371 692.996 1370.4 691.896 1369.2C690.796 1368 689.896 1366.6 689.896 1366C689.896 1365.4 696.596 1365 709.396 1365C720.396 1365 735.196 1364.3 743.096 1363.4C750.896 1362.6 758.296 1362.1 759.596 1362.5C760.896 1362.8 761.896 1362.6 761.896 1362.1C761.896 1361.3 775.996 1358.5 779.896 1358.5C780.696 1358.5 781.596 1358.2 781.896 1357.9C782.796 1356.9 799.996 1352.9 800.996 1353.5C801.496 1353.9 801.896 1353.6 801.896 1352.9C801.896 1352.3 802.696 1352 803.896 1352.3C804.996 1352.6 806.196 1352.4 806.496 1351.8C806.796 1351.3 807.696 1351.1 808.496 1351.4C810.196 1352.1 825.896 1346.7 826.896 1345.1C827.296 1344.4 828.196 1344 828.996 1344.1C831.096 1344.5 834.896 1343 834.896 1341.8C834.896 1341.2 835.796 1341 836.896 1341.3C838.096 1341.6 839.196 1341.2 839.796 1340.3C840.196 1339.4 841.196 1339 841.996 1339.2C843.696 1339.8 848.496 1337.5 851.596 1334.8C852.796 1333.7 854.396 1333 855.096 1333.3C856.496 1333.8 870.296 1327 869.496 1326.2C869.196 1326 872.196 1324.2 876.196 1322.2C880.196 1320.3 883.596 1318.4 883.696 1317.9C883.896 1317.4 884.696 1317 885.496 1317C886.296 1317 886.896 1316.6 886.896 1316C886.896 1315.5 887.596 1315 888.396 1315C889.196 1315 889.896 1314.6 889.896 1314C889.896 1313.5 890.996 1312.8 892.396 1312.4C893.796 1312.1 894.896 1311.5 894.896 1311C894.896 1310.6 896.396 1309.5 898.296 1308.5L901.696 1306.6L910.096 1311.7C919.696 1317.7 946.596 1332 949.096 1332.5C949.996 1332.7 951.896 1333.6 953.296 1334.5C954.696 1335.4 956.396 1336.3 957.096 1336.4C957.796 1336.6 960.996 1337.9 964.196 1339.4C967.396 1341 970.496 1342.3 971.196 1342.4C971.896 1342.6 973.096 1343 973.896 1343.3C974.696 1343.6 980.396 1345.5 986.396 1347.5C992.496 1349.5 998.196 1351.6 999.196 1352.1C1000.2 1352.6 1001.4 1352.8 1001.9 1352.5C1002.4 1352.2 1003 1352.4 1003.4 1353C1003.8 1353.6 1004.5 1353.8 1005 1353.4C1005.5 1353.1 1006.6 1353.4 1007.4 1354C1008.2 1354.7 1008.9 1354.9 1008.9 1354.5C1008.9 1354.1 1009.5 1354.3 1010.2 1354.9C1011 1355.5 1011.9 1355.7 1012.2 1355.4C1012.5 1355.1 1013.3 1355.2 1014 1355.6C1014.7 1356 1016.6 1356.5 1018.3 1356.7C1019.9 1356.9 1021.8 1357.5 1022.5 1358.1C1023.2 1358.7 1024.2 1359 1024.6 1358.7C1025 1358.4 1029.7 1359 1034.9 1360C1040.1 1361 1051.4 1362.5 1059.9 1363.4C1068.4 1364.2 1077.7 1365.2 1080.4 1365.5C1083.2 1365.7 1092 1365.9 1100.2 1365.9C1114.3 1365.9 1114.9 1366 1114.9 1367.9C1114.9 1369.8 1113.5 1371.3 1111.4 1371.6C1110.9 1371.6 1109.8 1371.8 1109.2 1371.8C1108.5 1371.9 1107.9 1372.6 1107.9 1373.3C1107.8 1374.7 1098.9 1380.5 1097.2 1380.1C1096.5 1380 1095.9 1380.5 1095.9 1381.2C1095.9 1382 1094.4 1383.4 1092.7 1384.4C1088.7 1386.7 1058.7 1404.8 1050.4 1410C1047.1 1412 1038.3 1417.4 1030.9 1422C1023.5 1426.6 1013.8 1432.6 1009.4 1435.3C1005 1438.1 1000.6 1440.3 999.696 1440.2C998.696 1440.2 997.896 1440.7 997.896 1441.5C997.896 1442.9 994.296 1444.6 992.196 1444.2C991.496 1444 990.896 1444.6 990.896 1445.5C990.896 1446.9 989.796 1447.4 987.196 1447.1C986.496 1447 985.896 1447.5 985.896 1448.2C985.896 1449.9 980.896 1452.9 979.196 1452.3C978.496 1452 977.896 1452.4 977.896 1453.2C977.896 1454.8 965.096 1462.4 962.696 1462.3C961.696 1462.2 960.896 1462.7 960.896 1463.3C960.896 1464 957.896 1466.2 954.096 1468.3C950.396 1470.3 944.496 1473.7 940.896 1475.8C930.896 1481.6 924.296 1484 913.896 1485.5C902.996 1487.2 904.096 1487.2 892.896 1485.5Z" fill="#FBFBFC"/>
<path d="M943.296 1158.2C936.996 1153.2 935.696 1151.7 932.296 1145L929.396 1139.5L929.096 1051.5L928.796 963.5L931.896 957.3C934.096 952.8 936.496 949.9 940.696 946.5C947.096 941.5 970.796 929 974.096 929C976.096 929 989.096 936.3 1010.4 949.5C1015.9 952.9 1024.7 958 1029.9 961C1040.5 966.9 1059.5 978.1 1064.9 981.5C1066.8 982.7 1071.4 985.5 1075.1 987.6C1083.1 992.2 1083.8 994.4 1077.8 995.4C1071.7 996.4 1067.5 994.8 1052.8 985.9C1045.4 981.5 1037.2 976.7 1034.4 975.3C1031.7 973.9 1024.3 969.6 1017.9 965.7C1011.6 961.9 1004.4 957.6 1001.9 956.2C999.396 954.8 996.696 953.1 995.896 952.5C995.096 951.8 990.896 949.9 986.696 948.1C970.096 941.3 956.396 945.9 950.396 960.3C948.996 963.6 948.896 975.8 948.896 1062.6C948.996 1116.9 948.796 1161.4 948.596 1161.7C948.296 1161.9 945.996 1160.3 943.296 1158.2Z" fill="#FBFBFC"/>
<path d="M361.896 1112.2C353.096 1107.5 345.296 1101.7 341.596 1097.1C334.596 1088.5 334.896 1094.3 334.896 977.1C334.896 908.8 335.296 870.2 335.896 867.8C337.196 863.2 343.596 857.3 348.396 856.4C355.896 855 359.596 856.6 384.396 871.4C397.596 879.3 416.296 890.4 425.896 896.1C459.696 915.9 490.596 934.4 509.396 946C519.896 952.5 532.896 960.4 538.396 963.7C562.896 978.4 573.896 985.3 573.896 986.1C573.896 987 564.596 990 561.796 990C559.596 990 546.896 983.9 533.896 976.6C520.496 969 504.796 960.1 502.896 959C502.096 958.4 500.096 957.4 498.396 956.7C496.796 955.9 488.196 951.2 479.396 946.3C470.596 941.3 461.196 936 458.396 934.5C453.196 931.6 436.696 921.7 419.996 911.7C408.496 904.7 400.496 900.8 396.396 900.2C394.796 900 392.596 899.4 391.596 898.8C390.196 898.1 389.396 898.1 388.896 899C388.496 899.7 387.296 900 386.296 899.7C383.296 898.8 373.896 906.6 370.896 912.5L368.396 917.5V1015C368.396 1079.2 368.096 1112.9 367.396 1113.6C366.696 1114.3 365.096 1114 361.896 1112.2Z" fill="#FBFBFC"/>
<path d="M648.396 978.6C638.796 976.9 628.196 973.2 626.596 970.9C625.796 969.9 624.996 969.3 624.696 969.6C624.096 970.1 617.796 966.8 610.396 962.2C608.196 960.8 601.696 956.9 595.896 953.5C590.096 950.1 578.796 943.2 570.796 938.2C549.896 925.3 527.796 912.2 512.596 903.6C509.896 902.1 507.496 900.2 507.196 899.4C506.896 898.6 506.296 898.2 505.796 898.5C505.396 898.8 500.996 896.6 496.196 893.6C491.396 890.7 473.696 880.1 456.896 870.2C440.096 860.3 416.696 846.3 404.796 839.2C392.996 832.1 377.396 823 370.296 819.1C355.896 811.1 347.796 803.8 345.996 797.3C344.396 791.8 344.696 782.5 346.396 778.3C350.196 769.4 354.796 765.8 382.896 749.9C391.396 745.1 402.496 738.8 407.396 736C412.396 733.1 420.896 728.1 426.396 725C431.896 721.9 440.196 717.1 444.896 714.4C449.596 711.6 470.296 699.6 490.896 687.6C511.496 675.6 530.596 664.5 533.196 662.9C535.896 661.3 538.396 660 538.896 660C539.296 660 539.896 676.1 540.096 695.8C540.596 731 540.596 731.6 543.196 740.3C546.396 750.6 546.296 750 544.396 750C543.596 750 542.896 750.6 542.896 751.3C542.896 751.9 541.696 753.9 540.096 755.5C532.596 763.7 527.696 779.6 529.796 789.1C532.996 803.8 537.296 808.6 557.096 819.5C570.296 826.8 610.896 849.6 622.396 856.2C625.196 857.8 630.996 860.9 635.396 863.1C639.796 865.4 644.496 868 645.896 869C648.796 871 677.396 886.8 712.896 906C732.696 916.7 753.896 929.4 753.596 930.4C753.496 930.8 746.996 934.9 739.396 939.5C731.696 944 721.096 950.4 715.896 953.5C693.096 967.3 685.696 971.3 682.096 971.4C681.396 971.5 680.496 972 680.096 972.6C678.796 974.7 672.696 977.1 666.596 978.1C663.196 978.6 659.296 979.2 657.896 979.4C656.496 979.6 652.296 979.3 648.396 978.6Z" fill="#FBFBFC"/>
<path d="M1142.2 978C1136.8 976.9 1127.9 973 1127.9 971.8C1127.9 971.3 1127.5 971.2 1126.9 971.5C1125.6 972.3 1117.9 968.3 1117.2 966.5C1116.9 965.7 1116.3 965.2 1115.9 965.5C1114.6 966.3 1109.9 963.8 1109.9 962.3C1109.9 961.5 1109.5 961.1 1109 961.4C1107.6 962.3 1104.9 961 1104.9 959.4C1104.9 958.6 1104.6 958.1 1104.2 958.1C1101.9 958.5 1099.6 957.5 1091.9 952.9C1087.2 950 1077.4 944.2 1070 939.8C1053.8 930.2 1053.1 929.6 1055.3 927.1C1056.3 926 1059.1 924.2 1061.7 922.9C1064.2 921.6 1067.1 919.8 1068.1 919C1069 918.2 1074.2 915.3 1079.6 912.5C1085 909.8 1089.6 907.3 1089.9 906.9C1090.2 906.6 1093 905.1 1096.2 903.7C1099.4 902.3 1102.7 900.4 1103.5 899.5C1104.3 898.7 1105.7 898 1106.5 898C1107.3 898 1107.9 897.6 1107.9 897.2C1107.9 896.7 1110.7 895 1114.2 893.4C1117.6 891.8 1121 889.9 1121.7 889.3C1122.4 888.6 1123.5 888 1124 888C1124.6 888 1125.7 887.3 1126.6 886.5C1127.4 885.6 1129.4 884.6 1131 884.3C1132.6 884 1133.9 883.4 1133.9 883C1133.9 882.5 1135.9 881.4 1138.4 880.3C1140.9 879.3 1142.9 878.2 1142.9 877.9C1142.9 877.5 1145.6 876.2 1148.9 875C1152.2 873.8 1154.6 872.4 1154.3 871.9C1154 871.4 1154.3 871 1154.9 871C1156 871 1165.1 866.9 1165.9 866C1166.2 865.7 1167.8 865 1169.4 864.4C1171.1 863.8 1172.3 862.8 1172.2 862.2C1172 861.5 1173 861 1174.4 861C1175.7 861 1177.2 860.4 1177.6 859.7C1178 859 1179.8 858 1181.4 857.4C1183.1 856.8 1184.3 855.9 1184.2 855.3C1184.1 854.7 1187.2 852.8 1191.2 851.1C1195.2 849.4 1198 848 1197.4 848C1196.9 848 1198.4 847 1200.9 845.9C1203.3 844.8 1205.6 843.5 1205.9 843.1C1206.2 842.6 1208.6 841.3 1211.4 840.1C1214.1 838.9 1216.6 837.6 1216.9 837.2C1217.2 836.7 1219.2 835.6 1221.4 834.6C1223.6 833.5 1225.6 832.4 1225.9 832.1C1226.6 831.1 1235.7 825.7 1241.4 822.8C1251.3 817.7 1255.3 815.5 1256.7 814.3C1257.4 813.6 1258.6 813 1259.3 813C1260.9 813 1266.1 807.5 1265.3 806.7C1264.9 806.3 1265.4 805.8 1266.3 805.4C1267.2 805.1 1267.7 804.4 1267.4 804C1267.1 803.6 1267.6 802.9 1268.5 802.6C1269.3 802.3 1269.7 801.6 1269.4 801C1269.1 800.5 1269.3 800 1269.9 800C1270.5 800 1270.7 799.6 1270.4 799C1270.1 798.5 1270.3 798 1270.9 798C1271.5 798 1271.7 797.6 1271.4 797C1271.1 796.5 1271.3 796 1271.9 796C1272.6 796 1272.9 795.3 1272.5 794.5C1272.2 793.7 1272.4 793 1273 793C1273.6 793 1273.8 792.1 1273.4 791C1273.1 789.9 1273.1 789 1273.6 789C1274 789 1274.4 786.1 1274.4 782.5C1274.4 778.9 1274 776 1273.6 776C1273.1 776 1273.1 775.1 1273.4 774C1273.8 772.9 1273.6 772 1273 772C1272.4 772 1272.2 771.3 1272.5 770.5C1272.9 769.7 1272.6 769 1271.8 769C1271.1 769 1270.8 768.7 1271.2 768.4C1271.8 767.8 1269.3 762.1 1268 761C1265.8 759.2 1258.9 748.8 1258.9 747.3C1258.9 746.3 1259.9 742.8 1261.1 739.5C1263.2 733.8 1263.3 731.5 1263.7 696.3C1263.9 675.8 1264.3 659 1264.6 659C1265.1 659 1302 680 1323.4 692.5C1331.1 697 1344.2 704.7 1352.4 709.5C1360.7 714.3 1372.6 721.3 1378.9 725C1385.2 728.7 1399 736.6 1409.4 742.5C1452.6 767.1 1453.7 767.8 1458 776.6C1463.1 787.2 1461.2 799.6 1453.1 807.6C1450.7 810 1444.4 814.5 1439.1 817.6C1419.5 829.1 1405 837.6 1386.9 848.4C1348.8 871 1323.2 886.3 1317.4 889.9C1314.1 892 1307.1 896.2 1301.9 899.2C1285.5 908.8 1270.6 917.6 1265.4 920.8C1253.6 928 1214.8 951.2 1196.5 962.2C1185.5 968.8 1173.8 975 1170.5 976.2C1163.7 978.5 1149 979.5 1142.2 978Z" fill="#FBFBFC"/>
<path d="M604.396 727.8C594.996 722.1 586.696 714.5 583.596 708.7L581.396 704.5V587V469.5L583.596 465.3C586.596 459.9 590.996 456.8 596.896 456.2C603.196 455.6 606.796 456.9 617.496 463.7C622.396 466.8 630.496 471.7 635.396 474.5C640.396 477.4 648.696 482.2 653.896 485.2C673.096 496.3 683.696 502.4 695.396 509.5C701.996 513.4 710.096 518.2 713.396 520C719.496 523.4 735.296 532.7 770.896 553.8C794.896 568 819.596 582.6 833.096 590.4C838.796 593.7 845.796 598.2 848.796 600.4L854.296 604.5L850.296 605.2C836.696 607.7 832.796 608.1 827.896 607.7C822.496 607.2 814.096 603.8 804.896 598.4C802.396 597 795.696 593.1 789.896 589.7C784.096 586.4 775.496 581.3 770.696 578.4C765.896 575.4 761.696 573 761.396 573C761.196 573 758.496 571.4 755.496 569.5C752.496 567.6 749.796 566 749.496 566C749.196 566 741.696 561.8 732.696 556.6C723.696 551.4 712.996 545.3 708.896 542.9C697.396 536.3 667.696 518.9 664.896 517.1C656.696 511.9 644.296 505.1 641.496 504.4C640.096 504.1 638.596 503.4 638.296 502.9C637.296 501.2 630.096 502 626.196 504.3C616.296 510 614.996 512.9 613.696 531C612.696 545.9 613.196 723.6 614.196 724.7C615.396 725.8 614.996 730.1 613.696 731.4C612.696 732.4 610.796 731.6 604.396 727.8Z" fill="#FBFBFC"/>
<path d="M894.196 575.9C884.496 574.2 878.196 571.2 849.696 554.4C828.496 541.9 799.196 525 768.996 507.7C754.396 499.4 741.796 491.9 740.896 491.1C739.996 490.2 738.596 489.4 737.596 489.2C736.696 489.1 733.396 487.4 730.196 485.6C710.096 474 704.396 470.7 695.896 465.8C690.696 462.7 684.596 459.2 682.396 457.9C680.196 456.7 670.996 451.3 661.896 446C652.796 440.7 640.696 433.7 634.896 430.5C629.096 427.3 622.396 423.6 619.896 422.2C598.596 410.2 597.196 390.5 616.796 377.6C623.596 373.1 658.696 353 690.896 335C701.096 329.4 720.696 318.3 734.396 310.5C776.696 286.4 795.896 275.6 808.396 268.8C814.996 265.2 825.596 259.4 831.896 255.9C862.196 239.3 872.996 233.8 880.396 231.3C887.796 228.7 889.496 228.5 903.396 228.5C917.796 228.6 918.696 228.7 926.796 231.8C931.496 233.5 939.596 237.4 944.796 240.4C950.096 243.3 963.396 250.6 974.396 256.6C985.396 262.5 997.196 269.1 1000.6 271.1C1003.9 273.2 1008.4 275.7 1010.6 276.7C1012.7 277.8 1026.8 285.8 1041.9 294.5C1057 303.2 1071.4 311.5 1073.9 312.8C1076.4 314.2 1082 317.4 1086.4 320C1090.8 322.5 1098.7 327 1103.9 330C1118.9 338.3 1128.7 343.9 1138.4 349.5C1143.4 352.3 1156.3 359.6 1167.3 365.6C1178.2 371.6 1189.1 378.2 1191.5 380.3C1197.4 385.4 1201 393.2 1201 400.4C1201 411.5 1195.5 417.1 1170.9 430.5C1164 434.2 1152.1 441 1144.3 445.6C1136.6 450.2 1120.4 459.5 1108.3 466.3C1096.3 473.2 1080.8 482 1073.9 486C1067 490 1059.8 494.2 1057.9 495.3C1038.1 506.4 989.296 534.6 957.396 553.3C931.796 568.3 921.796 573.7 917.396 574.8C911.196 576.4 899.896 576.9 894.196 575.9Z" fill="#FBFBFC"/>
</svg>
