<svg width="550" height="550" viewBox="0 0 550 550" fill="none" xmlns="http://www.w3.org/2000/svg">
<circle cx="275" cy="275" r="275" fill="#272727"/>
<path d="M266.667 476.032C239.195 474.797 212.659 467.92 188.225 455.704C185.187 454.201 181.382 452.165 179.747 451.231C178.111 450.296 176.709 449.528 176.609 449.528C176.342 449.528 170.868 446.057 164.859 442.085C143.563 427.999 123.903 408.572 110.351 388.31C103.041 377.295 98.4342 369.217 94.3619 360.238C90.1561 350.992 86.3843 340.177 87.1854 339.843C87.419 339.777 93.1937 339.743 100.07 339.777L112.554 339.877L114.39 344.216C116.726 349.624 122.367 360.772 125.138 365.412C129.511 372.722 132.815 377.395 138.957 385.106C150.473 399.559 164.425 412.344 180.047 422.725C201.143 436.711 225.944 446.357 249.977 449.829C267.768 452.432 278.082 452.499 295.54 450.163C304.986 448.928 308.625 448.227 315.901 446.357C342.538 439.515 365.27 427.932 385.097 411.175C387.166 409.406 389.57 407.403 390.404 406.703C393.075 404.499 399.817 397.757 403.823 393.284C417.542 377.963 428.724 360.172 435.734 342.514C436.268 341.245 436.835 340.111 437.035 339.977C437.236 339.843 443.077 339.71 450.02 339.71C462.27 339.71 462.604 339.743 462.604 340.344C462.604 341.346 461.102 345.852 459.099 350.992C450.187 373.79 435.166 396.889 417.375 415.114C411.433 421.189 401.787 429.901 397.18 433.339C396.68 433.707 394.577 435.275 392.474 436.844C386.566 441.284 376.418 447.926 370.644 451.097C345.843 464.883 317.804 473.295 289.198 475.531C284.491 475.932 270.706 476.232 266.667 476.032Z" fill="#F97316"/>
<path d="M247.141 406.134C234.023 404.732 221.906 398.757 210.858 388.142C198.44 376.226 190.062 361.672 185.256 343.547C182.585 333.466 181.884 327.959 181.884 316.944C181.884 306.796 182.752 298.084 184.254 293.411L184.621 292.31H191.998C202.313 292.31 204.682 292.91 208.521 296.449C212.159 299.787 213.294 302.557 216.432 315.675C217.133 318.512 217.801 320.983 217.934 321.116C218.235 321.45 221.038 315.709 222.474 311.77C227.915 296.849 224.143 283.798 212.727 277.99C209.089 276.154 207.219 275.92 195.737 275.854L185.389 275.787L185.489 274.852C185.556 274.318 186.457 271.247 187.525 268.009C191.898 254.724 197.74 245.578 211.726 230.224C217.767 223.615 220.271 220.644 223.375 216.438C226.68 211.999 230.485 206.558 231.62 204.689C233.222 201.951 235.091 199.214 235.225 199.314C235.291 199.415 235.024 201.017 234.657 202.919C232.521 213.901 232.22 223.181 233.823 229.823C235.158 235.264 238.663 240.438 242.902 243.242C245.539 244.978 249.544 246.48 250.045 245.979C250.212 245.812 250.045 244.911 249.645 243.876C247.809 239.27 246.307 229.99 246.307 223.381C246.307 213.434 248.109 204.188 253.316 187.498C255.052 181.924 257.155 173.546 258.023 168.639C258.59 165.401 258.724 163.231 258.757 157.457C258.757 148.444 258.156 144.272 255.82 137.396C255.386 136.06 255.085 134.892 255.186 134.792C255.586 134.391 262.996 139.098 267.135 142.369C270.407 144.973 276.482 151.148 279.085 154.486C287.964 165.935 293.705 179.153 295.742 193.006C296.876 200.783 296.443 212.633 294.74 220.21C294.573 221.011 294.473 221.745 294.573 221.846C294.774 222.046 298.011 219.776 299.881 218.141C305.188 213.467 308.392 204.789 308.392 195.042C308.392 188.5 306.69 177.985 304.487 171.042C304.053 169.573 303.753 168.338 303.819 168.238C304.053 168.005 309.26 172.711 311.964 175.615C315.435 179.32 320.476 186.53 323.38 192.004C329.522 203.487 332.426 215.37 332.426 229.056C332.392 240.204 330.857 250.085 327.085 263.27C325.449 268.944 324.648 272.349 323.68 277.623C323.013 281.228 322.912 282.897 322.912 289.806C322.946 298.652 323.28 301.222 325.483 307.898C326.584 311.269 330.657 319.714 331.257 319.914C331.491 319.981 331.825 318.379 332.192 315.942C332.926 310.501 334.428 304.593 335.83 301.789C337.266 298.819 340.971 294.98 343.474 293.845C346.178 292.61 348.815 292.31 357.36 292.31H365.104L365.471 293.645C368.442 304.627 368.576 322.318 365.805 336.671C362.434 354.128 354.857 369.75 343.708 382.267C332.259 395.152 321.043 402.195 307.291 405.199C301.55 406.434 290.067 406.401 284.927 405.099C283.358 404.698 283.558 404.331 285.795 403.63C289.099 402.529 296.876 398.556 299.714 396.453C301.283 395.285 304.153 392.748 306.089 390.812C315.369 381.533 321.21 370.651 324.748 356.064C325.583 352.56 326.05 345.383 325.449 345.383C325.216 345.383 323.647 346.685 321.978 348.254C317.605 352.359 314 354.896 307.558 358.368C305.622 359.436 299.413 361.872 299.18 361.672C299.113 361.572 299.447 361.005 299.914 360.37C300.949 359.035 303.319 354.095 304.32 351.224C307.091 343.247 308.326 332.298 307.424 323.653C306.523 315.108 303.486 304.46 299.914 297.383C295.107 287.837 287.363 277.623 279.653 270.58C274.512 265.906 266.167 259.464 265.667 259.765C265.533 259.865 265.533 260.499 265.7 261.167C265.9 261.868 266.101 264.605 266.234 267.275C266.535 275.319 265.3 282.997 262.262 291.509C260.526 296.382 255.753 305.995 251.948 312.17C241.4 329.361 236.86 339.508 234.924 350.223C233.889 355.831 233.823 364.609 234.724 369.216C236.426 377.661 240.198 385.305 246.073 392.148C250.112 396.821 255.887 400.86 261.394 402.796C264.398 403.864 265.266 404.298 264.966 404.598C264.899 404.665 263.33 405.032 261.494 405.433C257.656 406.234 251.013 406.534 247.141 406.134Z" fill="#F97316"/>
<path d="M79.0759 326.324C67.6935 325.456 57.7464 319.582 50.7033 309.635C41.5573 296.65 40.4558 278.959 47.9328 264.94C53.9745 253.591 63.8548 246.114 75.9382 243.677C78.6753 243.143 81.3123 243.109 108.116 243.176C125.173 243.243 138.224 243.41 139.493 243.61C141.963 243.977 146.87 245.579 149.34 246.848C154.647 249.485 160.989 255.026 164.193 259.833C167.365 264.572 170.202 271.649 170.202 274.82V275.955H157.351H144.533L144.032 275.054C142.564 272.25 138.525 269.212 134.853 268.077C132.583 267.41 81.9799 267.41 79.7101 268.077C75.6378 269.312 71.5989 272.55 69.6628 276.155C68.5947 278.124 67.393 282.798 67.393 284.967C67.393 287.07 68.2275 290.742 69.1622 292.745C70.8311 296.383 74.7365 299.921 78.5752 301.29C80.5779 302.024 80.6447 302.024 107.649 301.924L134.686 301.824L137.189 300.589C139.96 299.22 142.53 296.817 144.066 294.147L145.034 292.478L157.952 292.377C169.067 292.311 170.869 292.377 170.869 292.778C170.869 295.148 168.266 302.792 166.33 306.13C160.989 315.343 155.048 320.783 146.569 324.155C140.728 326.491 141.762 326.424 110.619 326.525C95.1981 326.591 81.0119 326.491 79.0759 326.324Z" fill="#F97316"/>
<path d="M412.369 326.325C398.75 324.99 386.066 314.476 381.193 300.556C380.192 297.686 379.157 293.747 379.157 292.779C379.157 292.378 381.059 292.312 392.175 292.312H405.193L405.693 293.48C406.461 295.416 409.165 298.554 410.967 299.722C414.639 302.092 413.137 301.958 442.244 301.992C470.75 301.992 469.915 302.025 473.821 300.056C476.124 298.887 478.961 296.017 480.363 293.447C481.465 291.41 482.633 287.038 482.633 285.002C482.633 282.565 481.732 278.96 480.563 276.623C478.961 273.419 475.456 270.014 472.452 268.746L470.116 267.778L443.579 267.678C415.373 267.577 415.707 267.577 412.403 269.213C410.567 270.114 407.195 273.152 406.161 274.854L405.46 275.956H392.475H379.457L379.657 274.721C380.225 271.182 382.395 265.475 384.598 261.803C386.467 258.632 390.472 253.825 393.076 251.689C396.047 249.185 400.353 246.715 403.924 245.447C410.2 243.21 409.332 243.277 441.943 243.244C474.689 243.177 473.854 243.144 480.23 245.413C485.971 247.483 490.577 250.554 495.184 255.327C502.894 263.372 507 273.619 507 284.935C507 296.517 502.627 306.965 494.182 315.477C488.508 321.218 481.665 324.823 474.021 326.058C471.317 326.492 416.375 326.726 412.369 326.325Z" fill="#F97316"/>
<path d="M335.429 278.459C335.429 278.392 336.397 276.323 337.565 273.886C340.97 266.843 343.707 259.733 345.075 254.393C346.577 248.518 346.844 246.582 347.078 240.907L347.278 235.066L349.248 237.703C353.053 242.81 356.925 249.987 359.963 257.597C362.199 263.171 365.136 274.12 364.736 275.355C364.602 275.689 362.433 275.789 354.255 275.822C343.039 275.856 341.137 276.089 337.832 277.758C336.196 278.593 335.429 278.826 335.429 278.459Z" fill="#F97316"/>
<path d="M83.884 227.822C84.3514 224.784 85.5864 219.477 87.1219 213.869C89.3917 205.658 89.425 205.557 93.6642 194.776C96.7351 186.865 103.177 174.581 109.086 165.335C112.023 160.762 118.332 151.817 120.435 149.246C120.902 148.679 122.07 147.244 122.971 146.075C128.88 138.532 141.797 125.547 150.843 118.037C158.621 111.594 170.47 103.55 180.718 97.8086C206.22 83.4888 234.325 75.2775 264.5 73.3415C292.773 71.539 323.448 76.9131 350.853 88.4958C355.526 90.4318 367.175 96.2732 370.814 98.4762C376.121 101.647 376.989 102.215 383.164 106.354C392.544 112.629 397.851 116.768 406.196 124.279C424.955 141.202 439.375 160.228 450.424 182.659C457.834 197.68 462.707 211.633 465.278 225.185C465.812 227.922 465.845 228.756 465.511 228.957C465.311 229.09 459.703 229.19 453.127 229.123L441.111 229.057L440.009 225.218C436.171 212.1 432.632 202.687 428.059 193.674C418.713 175.149 408.9 161.83 393.478 146.543C384.099 137.297 378.758 132.924 368.41 125.981C350.719 114.098 333.095 106.487 312.4 101.747C285.896 95.6723 262.297 95.906 235.627 102.415C222.475 105.653 213.229 108.991 200.912 114.966C182.587 123.878 166.999 135.327 151.544 151.316C132.084 171.444 117.597 196.612 110.621 222.548C109.953 225.018 109.252 227.555 109.086 228.155L108.718 229.224H96.2011H83.6504L83.884 227.822Z" fill="#F97316"/>
<path d="M267.28 464.906C241.453 463.745 216.505 457.281 193.534 445.795C190.678 444.383 187.1 442.468 185.563 441.59C184.025 440.711 182.707 439.989 182.613 439.989C182.362 439.989 177.215 436.726 171.567 432.991C151.545 419.748 133.062 401.484 120.321 382.436C113.448 372.08 109.118 364.486 105.289 356.044C101.335 347.352 97.789 337.184 98.5422 336.87C98.7618 336.807 104.191 336.776 110.655 336.807L122.392 336.902L124.118 340.981C126.315 346.065 131.618 356.546 134.223 360.908C138.334 367.781 141.441 372.174 147.215 379.423C158.041 393.011 171.159 405.031 185.845 414.79C205.678 427.939 228.995 437.008 251.589 440.272C268.315 442.72 278.012 442.782 294.425 440.586C303.306 439.425 306.726 438.765 313.567 437.008C338.61 430.575 359.98 419.686 378.621 403.932C380.567 402.269 382.826 400.386 383.611 399.727C386.121 397.656 392.46 391.317 396.226 387.112C409.124 372.708 419.636 355.981 426.227 339.381C426.729 338.188 427.262 337.121 427.45 336.996C427.639 336.87 433.13 336.745 439.658 336.745C451.175 336.745 451.489 336.776 451.489 337.341C451.489 338.282 450.076 342.519 448.194 347.352C439.815 368.785 425.693 390.501 408.967 407.635C403.381 413.347 394.312 421.537 389.981 424.769C389.51 425.115 387.533 426.59 385.556 428.064C380.002 432.238 370.462 438.483 365.033 441.464C341.717 454.425 315.356 462.333 288.462 464.435C284.038 464.812 271.077 465.094 267.28 464.906Z" fill="#FAFAFA"/>
<path d="M248.921 399.194C236.589 397.876 225.197 392.258 214.81 382.279C203.136 371.076 195.259 357.394 190.74 340.353C188.23 330.876 187.571 325.698 187.571 315.343C187.571 305.803 188.387 297.612 189.799 293.219L190.144 292.183H197.079C206.776 292.183 209.004 292.748 212.613 296.074C216.034 299.212 217.101 301.817 220.051 314.15C220.71 316.817 221.337 319.14 221.463 319.265C221.745 319.579 224.381 314.181 225.731 310.478C230.846 296.451 227.3 284.181 216.567 278.72C213.147 276.994 211.389 276.775 200.594 276.712L190.866 276.649L190.96 275.771C191.023 275.268 191.87 272.381 192.874 269.337C196.985 256.848 202.477 248.249 215.626 233.814C221.306 227.6 223.659 224.807 226.578 220.853C229.685 216.679 233.262 211.564 234.329 209.807C235.835 207.234 237.593 204.66 237.718 204.755C237.781 204.849 237.53 206.355 237.185 208.144C235.176 218.468 234.894 227.192 236.4 233.437C237.655 238.552 240.951 243.416 244.936 246.052C247.415 247.684 251.181 249.096 251.652 248.626C251.808 248.469 251.652 247.621 251.275 246.649C249.549 242.318 248.137 233.594 248.137 227.38C248.137 218.029 249.831 209.336 254.727 193.646C256.359 188.405 258.336 180.528 259.152 175.915C259.685 172.871 259.811 170.831 259.842 165.402C259.842 156.929 259.277 153.007 257.081 146.542C256.673 145.287 256.39 144.188 256.484 144.094C256.861 143.718 263.828 148.143 267.719 151.218C270.794 153.666 276.506 159.471 278.953 162.609C287.301 173.373 292.698 185.8 294.613 198.823C295.68 206.135 295.272 217.276 293.671 224.399C293.514 225.152 293.42 225.843 293.514 225.937C293.703 226.125 296.747 223.991 298.504 222.454C303.494 218.06 306.506 209.901 306.506 200.738C306.506 194.587 304.906 184.702 302.835 178.174C302.427 176.794 302.144 175.633 302.207 175.538C302.427 175.319 307.322 179.744 309.864 182.474C313.128 185.957 317.866 192.735 320.596 197.882C326.371 208.677 329.101 219.849 329.101 232.715C329.069 243.197 327.626 252.486 324.08 264.881C322.542 270.216 321.789 273.417 320.879 278.375C320.251 281.764 320.157 283.333 320.157 289.829C320.189 298.146 320.502 300.562 322.573 306.838C323.609 310.008 327.438 317.947 328.002 318.135C328.222 318.198 328.536 316.692 328.881 314.401C329.572 309.286 330.984 303.731 332.302 301.095C333.651 298.302 337.134 294.694 339.488 293.627C342.03 292.465 344.509 292.183 352.543 292.183H359.823L360.168 293.438C362.961 303.763 363.087 320.395 360.482 333.889C357.313 350.301 350.189 364.988 339.708 376.756C328.944 388.869 318.4 395.491 305.471 398.315C300.073 399.476 289.278 399.445 284.445 398.221C282.97 397.844 283.158 397.499 285.261 396.84C288.368 395.804 295.68 392.07 298.347 390.093C299.822 388.995 302.521 386.61 304.341 384.79C313.065 376.065 318.557 365.835 321.883 352.121C322.668 348.826 323.107 342.079 322.542 342.079C322.322 342.079 320.848 343.303 319.278 344.778C315.167 348.638 311.778 351.023 305.722 354.287C303.902 355.291 298.065 357.582 297.845 357.394C297.782 357.299 298.096 356.766 298.535 356.17C299.508 354.914 301.736 350.27 302.678 347.571C305.282 340.071 306.443 329.778 305.596 321.65C304.749 313.617 301.893 303.606 298.535 296.953C294.016 287.978 286.736 278.375 279.487 271.754C274.654 267.36 266.809 261.304 266.338 261.586C266.213 261.68 266.213 262.277 266.369 262.904C266.558 263.563 266.746 266.137 266.872 268.647C267.154 276.21 265.993 283.428 263.137 291.43C261.505 296.012 257.018 305.049 253.44 310.855C243.524 327.016 239.256 336.556 237.436 346.63C236.463 351.902 236.4 360.155 237.248 364.486C238.848 372.425 242.394 379.612 247.917 386.045C251.714 390.438 257.143 394.235 262.321 396.055C265.146 397.06 265.961 397.468 265.679 397.75C265.616 397.813 264.141 398.158 262.415 398.535C258.807 399.288 252.562 399.57 248.921 399.194Z" fill="#FAFAFA"/>
<path d="M90.9164 324.161C80.2153 323.345 70.8637 317.822 64.2422 308.47C55.6437 296.263 54.6081 279.63 61.6375 266.45C67.3176 255.781 76.6065 248.751 87.9665 246.46C90.5398 245.958 93.0189 245.927 118.218 245.99C134.254 246.052 146.524 246.209 147.717 246.398C150.039 246.743 154.652 248.249 156.974 249.442C161.964 251.921 167.926 257.13 170.939 261.649C173.92 266.105 176.588 272.758 176.588 275.739V276.806H164.506H152.455L151.985 275.959C150.604 273.323 146.807 270.467 143.355 269.4C141.221 268.772 93.6466 268.772 91.5126 269.4C87.6841 270.561 83.8869 273.605 82.0668 276.994C81.0626 278.846 79.9329 283.239 79.9329 285.279C79.9329 287.256 80.7174 290.708 81.5961 292.591C83.1652 296.012 86.8368 299.338 90.4457 300.625C92.3285 301.315 92.3913 301.315 117.779 301.221L143.198 301.127L145.551 299.966C148.156 298.679 150.572 296.419 152.016 293.909L152.926 292.34L165.071 292.246C175.521 292.183 177.215 292.246 177.215 292.622C177.215 294.85 174.767 302.037 172.947 305.175C167.926 313.836 162.34 318.951 154.37 322.121C148.878 324.318 149.851 324.255 120.572 324.349C106.074 324.412 92.7365 324.318 90.9164 324.161Z" fill="#FAFAFA"/>
<path d="M404.26 324.16C391.456 322.905 379.531 313.02 374.949 299.934C374.008 297.235 373.035 293.532 373.035 292.622C373.035 292.246 374.824 292.183 385.274 292.183H397.513L397.983 293.281C398.705 295.101 401.247 298.051 402.942 299.149C406.394 301.378 404.981 301.252 432.346 301.283C459.146 301.283 458.361 301.315 462.033 299.463C464.198 298.365 466.865 295.666 468.183 293.25C469.219 291.336 470.317 287.225 470.317 285.31C470.317 283.019 469.47 279.63 468.372 277.434C466.865 274.421 463.57 271.22 460.746 270.028L458.549 269.118L433.601 269.023C407.084 268.929 407.398 268.929 404.291 270.467C402.565 271.314 399.396 274.17 398.423 275.77L397.764 276.806H385.556H373.318L373.506 275.645C374.039 272.318 376.079 266.952 378.15 263.5C379.908 260.519 383.673 256 386.121 253.992C388.914 251.638 392.962 249.316 396.32 248.123C402.22 246.021 401.404 246.084 432.064 246.052C462.849 245.989 462.064 245.958 468.058 248.092C473.456 250.038 477.786 252.925 482.117 257.412C489.366 264.975 493.226 274.609 493.226 285.248C493.226 296.137 489.115 305.959 481.175 313.961C475.841 319.359 469.407 322.748 462.221 323.909C459.679 324.317 408.025 324.537 404.26 324.16Z" fill="#FAFAFA"/>
<path d="M331.925 279.16C331.925 279.097 332.835 277.151 333.934 274.86C337.135 268.239 339.708 261.555 340.995 256.534C342.407 251.01 342.658 249.19 342.877 243.856L343.066 238.364L344.917 240.843C348.495 245.644 352.135 252.391 354.991 259.546C357.093 264.787 359.855 275.08 359.478 276.241C359.353 276.555 357.313 276.649 349.624 276.68C339.08 276.712 337.292 276.931 334.185 278.501C332.647 279.285 331.925 279.505 331.925 279.16Z" fill="#FAFAFA"/>
<path d="M95.4355 231.554C95.8748 228.698 97.0359 223.709 98.4795 218.437C100.613 210.717 100.645 210.623 104.63 200.487C107.517 193.049 113.574 181.501 119.128 172.808C121.89 168.509 127.821 160.099 129.798 157.682C130.237 157.149 131.336 155.799 132.183 154.701C137.738 147.609 149.882 135.402 158.387 128.341C165.698 122.284 176.839 114.721 186.473 109.324C210.448 95.861 236.871 88.1412 265.24 86.321C291.82 84.6264 320.66 89.6788 346.424 100.568C350.817 102.388 361.769 107.88 365.19 109.951C370.18 112.932 370.995 113.466 376.801 117.357C385.619 123.257 390.609 127.148 398.454 134.209C416.09 150.119 429.647 168.007 440.034 189.095C447.001 203.217 451.583 216.334 453.999 229.075C454.501 231.648 454.533 232.433 454.219 232.621C454.031 232.747 448.758 232.841 442.576 232.778L431.279 232.715L430.243 229.106C426.635 216.773 423.308 207.924 419.009 199.451C410.222 182.034 400.996 169.513 386.498 155.14C377.68 146.448 372.659 142.337 362.93 135.809C346.298 124.638 329.729 117.483 310.272 113.027C285.356 107.315 263.169 107.535 238.095 113.654C225.731 116.698 217.038 119.836 205.459 125.454C188.23 133.832 173.575 144.596 159.046 159.628C140.75 178.551 127.131 202.212 120.572 226.596C119.944 228.918 119.285 231.303 119.128 231.868L118.783 232.872H107.015H95.2158L95.4355 231.554Z" fill="#FAFAFA"/>
</svg>
