<svg width="500" height="500" viewBox="0 0 500 500" fill="none" xmlns="http://www.w3.org/2000/svg">
<rect width="500" height="500" fill="#272727"/>
<path d="M241.667 451.032C214.195 449.797 187.659 442.92 163.225 430.704C160.187 429.201 156.382 427.165 154.747 426.231C153.111 425.296 151.709 424.528 151.609 424.528C151.342 424.528 145.868 421.057 139.859 417.085C118.563 402.999 98.9028 383.572 85.3507 363.31C78.0406 352.295 73.4342 344.217 69.3619 335.238C65.1561 325.992 61.3843 315.177 62.1854 314.843C62.419 314.777 68.1937 314.743 75.0698 314.777L87.5537 314.877L89.3896 319.216C91.7262 324.624 97.3673 335.772 100.138 340.412C104.511 347.722 107.815 352.395 113.957 360.106C125.473 374.559 139.425 387.344 155.047 397.725C176.143 411.711 200.944 421.357 224.977 424.829C242.768 427.432 253.082 427.499 270.54 425.163C279.986 423.928 283.625 423.227 290.901 421.357C317.538 414.515 340.27 402.932 360.097 386.175C362.166 384.406 364.57 382.403 365.404 381.703C368.075 379.499 374.817 372.757 378.823 368.284C392.542 352.963 403.724 335.172 410.734 317.514C411.268 316.245 411.835 315.111 412.035 314.977C412.236 314.843 418.077 314.71 425.02 314.71C437.27 314.71 437.604 314.743 437.604 315.344C437.604 316.346 436.102 320.852 434.099 325.992C425.187 348.79 410.166 371.889 392.375 390.114C386.433 396.189 376.787 404.901 372.18 408.339C371.68 408.707 369.577 410.275 367.474 411.844C361.566 416.284 351.418 422.926 345.644 426.097C320.843 439.883 292.804 448.295 264.198 450.531C259.491 450.932 245.706 451.232 241.667 451.032Z" fill="#F97316"/>
<path d="M222.141 381.134C209.023 379.732 196.906 373.757 185.858 363.142C173.44 351.226 165.062 336.672 160.256 318.547C157.585 308.466 156.884 302.959 156.884 291.944C156.884 281.796 157.752 273.084 159.254 268.411L159.621 267.31H166.998C177.313 267.31 179.682 267.91 183.521 271.449C187.159 274.787 188.294 277.557 191.432 290.675C192.133 293.512 192.801 295.983 192.934 296.116C193.235 296.45 196.038 290.709 197.474 286.77C202.915 271.849 199.143 258.798 187.727 252.99C184.089 251.154 182.219 250.92 170.737 250.854L160.389 250.787L160.489 249.852C160.556 249.318 161.457 246.247 162.525 243.009C166.898 229.724 172.74 220.578 186.726 205.224C192.767 198.615 195.271 195.644 198.375 191.438C201.68 186.999 205.485 181.558 206.62 179.689C208.222 176.951 210.091 174.214 210.225 174.314C210.291 174.415 210.024 176.017 209.657 177.919C207.521 188.901 207.22 198.181 208.823 204.823C210.158 210.264 213.663 215.438 217.902 218.242C220.539 219.978 224.544 221.48 225.045 220.979C225.212 220.812 225.045 219.911 224.645 218.876C222.809 214.27 221.307 204.99 221.307 198.381C221.307 188.434 223.109 179.188 228.316 162.498C230.052 156.924 232.155 148.546 233.023 143.639C233.59 140.401 233.724 138.231 233.757 132.457C233.757 123.444 233.156 119.272 230.82 112.396C230.386 111.06 230.085 109.892 230.186 109.792C230.586 109.391 237.996 114.098 242.135 117.369C245.407 119.973 251.482 126.148 254.085 129.486C262.964 140.935 268.705 154.153 270.742 168.006C271.876 175.783 271.443 187.633 269.74 195.21C269.573 196.011 269.473 196.745 269.573 196.846C269.774 197.046 273.011 194.776 274.881 193.141C280.188 188.467 283.392 179.789 283.392 170.042C283.392 163.5 281.69 152.985 279.487 146.042C279.053 144.573 278.753 143.338 278.819 143.238C279.053 143.005 284.26 147.711 286.964 150.615C290.435 154.32 295.476 161.53 298.38 167.004C304.522 178.487 307.426 190.37 307.426 204.056C307.392 215.204 305.857 225.085 302.085 238.27C300.449 243.944 299.648 247.349 298.68 252.623C298.013 256.228 297.912 257.897 297.912 264.806C297.946 273.652 298.28 276.222 300.483 282.898C301.584 286.269 305.657 294.714 306.257 294.914C306.491 294.981 306.825 293.379 307.192 290.942C307.926 285.501 309.428 279.593 310.83 276.789C312.266 273.819 315.971 269.98 318.474 268.845C321.178 267.61 323.815 267.31 332.36 267.31H340.104L340.471 268.645C343.442 279.627 343.576 297.318 340.805 311.671C337.434 329.128 329.857 344.75 318.708 357.267C307.259 370.152 296.043 377.195 282.291 380.199C276.55 381.434 265.067 381.401 259.927 380.099C258.358 379.698 258.558 379.331 260.795 378.63C264.099 377.529 271.876 373.556 274.714 371.453C276.283 370.285 279.153 367.748 281.089 365.812C290.369 356.533 296.21 345.651 299.748 331.064C300.583 327.56 301.05 320.383 300.449 320.383C300.216 320.383 298.647 321.685 296.978 323.254C292.605 327.359 289 329.896 282.558 333.368C280.622 334.436 274.413 336.872 274.18 336.672C274.113 336.572 274.447 336.005 274.914 335.37C275.949 334.035 278.319 329.095 279.32 326.224C282.091 318.247 283.326 307.298 282.424 298.653C281.523 290.108 278.486 279.46 274.914 272.383C270.107 262.837 262.363 252.623 254.653 245.58C249.512 240.906 241.167 234.464 240.667 234.765C240.533 234.865 240.533 235.499 240.7 236.167C240.9 236.868 241.101 239.605 241.234 242.275C241.535 250.319 240.3 257.997 237.262 266.509C235.526 271.382 230.753 280.995 226.948 287.17C216.4 304.361 211.86 314.508 209.924 325.223C208.889 330.831 208.823 339.609 209.724 344.216C211.426 352.661 215.198 360.305 221.073 367.148C225.112 371.821 230.887 375.86 236.394 377.796C239.398 378.864 240.266 379.298 239.966 379.598C239.899 379.665 238.33 380.032 236.494 380.433C232.656 381.234 226.013 381.534 222.141 381.134Z" fill="#F97316"/>
<path d="M54.0759 301.324C42.6935 300.456 32.7464 294.582 25.7033 284.635C16.5573 271.65 15.4558 253.959 22.9328 239.94C28.9745 228.591 38.8548 221.114 50.9382 218.677C53.6753 218.143 56.3123 218.109 83.116 218.176C100.173 218.243 113.224 218.41 114.493 218.61C116.963 218.977 121.87 220.579 124.34 221.848C129.647 224.485 135.989 230.026 139.193 234.833C142.365 239.572 145.202 246.649 145.202 249.82V250.955H132.351H119.533L119.032 250.054C117.564 247.25 113.525 244.212 109.853 243.077C107.583 242.41 56.9799 242.41 54.7101 243.077C50.6378 244.312 46.5989 247.55 44.6628 251.155C43.5947 253.124 42.393 257.798 42.393 259.967C42.393 262.07 43.2275 265.742 44.1622 267.745C45.8311 271.383 49.7365 274.921 53.5752 276.29C55.5779 277.024 55.6447 277.024 82.6487 276.924L109.686 276.824L112.189 275.589C114.96 274.22 117.53 271.817 119.066 269.147L120.034 267.478L132.952 267.377C144.067 267.311 145.869 267.377 145.869 267.778C145.869 270.148 143.266 277.792 141.33 281.13C135.989 290.343 130.048 295.783 121.569 299.155C115.728 301.491 116.762 301.424 85.6194 301.525C70.1981 301.591 56.0119 301.491 54.0759 301.324Z" fill="#F97316"/>
<path d="M387.369 301.325C373.75 299.99 361.066 289.476 356.193 275.556C355.192 272.686 354.157 268.747 354.157 267.779C354.157 267.378 356.059 267.312 367.175 267.312H380.193L380.693 268.48C381.461 270.416 384.165 273.554 385.967 274.722C389.639 277.092 388.137 276.958 417.244 276.992C445.75 276.992 444.915 277.025 448.821 275.056C451.124 273.887 453.961 271.017 455.363 268.447C456.465 266.41 457.633 262.038 457.633 260.002C457.633 257.565 456.732 253.96 455.563 251.623C453.961 248.419 450.456 245.014 447.452 243.746L445.116 242.778L418.579 242.678C390.373 242.577 390.707 242.577 387.403 244.213C385.567 245.114 382.195 248.152 381.161 249.854L380.46 250.956H367.475H354.457L354.657 249.721C355.225 246.182 357.395 240.475 359.598 236.803C361.467 233.632 365.472 228.825 368.076 226.689C371.047 224.185 375.353 221.715 378.924 220.447C385.2 218.21 384.332 218.277 416.943 218.244C449.689 218.177 448.854 218.144 455.23 220.413C460.971 222.483 465.577 225.554 470.184 230.327C477.894 238.372 482 248.619 482 259.935C482 271.517 477.627 281.965 469.182 290.477C463.508 296.218 456.665 299.823 449.021 301.058C446.317 301.492 391.375 301.726 387.369 301.325Z" fill="#F97316"/>
<path d="M310.429 253.459C310.429 253.392 311.397 251.323 312.565 248.886C315.97 241.843 318.707 234.733 320.075 229.393C321.577 223.518 321.844 221.582 322.078 215.907L322.278 210.066L324.248 212.703C328.053 217.81 331.925 224.987 334.963 232.597C337.199 238.171 340.136 249.12 339.736 250.355C339.602 250.689 337.433 250.789 329.255 250.822C318.039 250.856 316.137 251.089 312.832 252.758C311.196 253.593 310.429 253.826 310.429 253.459Z" fill="#F97316"/>
<path d="M58.884 202.822C59.3514 199.784 60.5864 194.477 62.1219 188.869C64.3917 180.658 64.425 180.557 68.6642 169.776C71.7351 161.865 78.1774 149.581 84.0855 140.335C87.0229 135.762 93.3316 126.817 95.4345 124.246C95.9018 123.679 97.0701 122.244 97.9714 121.075C103.88 113.532 116.797 100.547 125.843 93.0366C133.621 86.5943 145.47 78.5499 155.718 72.8086C181.22 58.4888 209.325 50.2775 239.5 48.3415C267.773 46.539 298.448 51.9131 325.853 63.4958C330.526 65.4318 342.175 71.2732 345.814 73.4762C351.121 76.6473 351.989 77.2147 358.164 81.3538C367.544 87.6291 372.851 91.7681 381.196 99.2785C399.955 116.202 414.375 135.228 425.424 157.659C432.834 172.68 437.707 186.633 440.278 200.185C440.812 202.922 440.845 203.756 440.511 203.957C440.311 204.09 434.703 204.19 428.127 204.123L416.111 204.057L415.009 200.218C411.171 187.1 407.632 177.687 403.059 168.674C393.713 150.149 383.9 136.83 368.478 121.543C359.099 112.297 353.758 107.924 343.41 100.981C325.719 89.0978 308.095 81.4873 287.4 76.7474C260.896 70.6723 237.297 70.906 210.627 77.415C197.475 80.6528 188.229 83.9907 175.912 89.9657C157.587 98.878 141.999 110.327 126.544 126.316C107.084 146.444 92.5973 171.612 85.621 197.548C84.9534 200.018 84.2524 202.555 84.0855 203.155L83.7184 204.224H71.2011H58.6504L58.884 202.822Z" fill="#F97316"/>
<path d="M241.28 439.906C215.453 438.745 190.505 432.281 167.534 420.795C164.678 419.383 161.1 417.468 159.563 416.59C158.025 415.711 156.707 414.989 156.613 414.989C156.362 414.989 151.215 411.726 145.567 407.991C125.545 394.748 107.062 376.484 94.3208 357.436C87.4483 347.08 83.1177 339.486 79.2892 331.044C75.3351 322.352 71.789 312.184 72.5422 311.87C72.7618 311.807 78.1908 311.776 84.6554 311.807L96.392 311.902L98.118 315.981C100.315 321.065 105.618 331.546 108.223 335.908C112.334 342.781 115.441 347.174 121.215 354.423C132.041 368.011 145.159 380.031 159.845 389.79C179.678 402.939 202.995 412.008 225.589 415.272C242.315 417.72 252.012 417.782 268.425 415.586C277.306 414.425 280.726 413.765 287.567 412.008C312.61 405.575 333.98 394.686 352.621 378.932C354.567 377.269 356.826 375.386 357.611 374.727C360.121 372.656 366.46 366.317 370.226 362.112C383.124 347.708 393.636 330.981 400.227 314.381C400.729 313.188 401.262 312.121 401.45 311.996C401.639 311.87 407.13 311.745 413.658 311.745C425.175 311.745 425.489 311.776 425.489 312.341C425.489 313.282 424.076 317.519 422.194 322.352C413.815 343.785 399.693 365.501 382.967 382.635C377.381 388.347 368.312 396.537 363.981 399.769C363.51 400.115 361.533 401.59 359.556 403.064C354.002 407.238 344.462 413.483 339.033 416.464C315.717 429.425 289.356 437.333 262.462 439.435C258.038 439.812 245.077 440.094 241.28 439.906Z" fill="#FAFAFA"/>
<path d="M222.921 374.194C210.589 372.876 199.197 367.258 188.81 357.279C177.136 346.076 169.259 332.394 164.74 315.353C162.23 305.876 161.571 300.698 161.571 290.343C161.571 280.803 162.387 272.612 163.799 268.219L164.144 267.183H171.079C180.776 267.183 183.004 267.748 186.613 271.074C190.034 274.212 191.101 276.817 194.051 289.15C194.71 291.817 195.337 294.14 195.463 294.265C195.745 294.579 198.381 289.181 199.731 285.478C204.846 271.451 201.3 259.181 190.567 253.72C187.147 251.994 185.389 251.775 174.594 251.712L164.866 251.649L164.96 250.771C165.023 250.268 165.87 247.381 166.874 244.337C170.985 231.848 176.477 223.249 189.626 208.814C195.306 202.6 197.659 199.807 200.578 195.853C203.685 191.679 207.262 186.564 208.329 184.807C209.835 182.234 211.593 179.66 211.718 179.755C211.781 179.849 211.53 181.355 211.185 183.144C209.176 193.468 208.894 202.192 210.4 208.437C211.655 213.552 214.951 218.416 218.936 221.052C221.415 222.684 225.181 224.096 225.652 223.626C225.808 223.469 225.652 222.621 225.275 221.649C223.549 217.318 222.137 208.594 222.137 202.38C222.137 193.029 223.831 184.336 228.727 168.646C230.359 163.405 232.336 155.528 233.152 150.915C233.685 147.871 233.811 145.831 233.842 140.402C233.842 131.929 233.277 128.007 231.081 121.542C230.673 120.287 230.39 119.188 230.484 119.094C230.861 118.718 237.828 123.143 241.719 126.218C244.794 128.666 250.506 134.471 252.953 137.609C261.301 148.373 266.698 160.8 268.613 173.823C269.68 181.135 269.272 192.276 267.671 199.399C267.514 200.152 267.42 200.843 267.514 200.937C267.703 201.125 270.747 198.991 272.504 197.454C277.494 193.06 280.506 184.901 280.506 175.738C280.506 169.587 278.906 159.702 276.835 153.174C276.427 151.794 276.144 150.633 276.207 150.538C276.427 150.319 281.322 154.744 283.864 157.474C287.128 160.957 291.866 167.735 294.596 172.882C300.371 183.677 303.101 194.849 303.101 207.715C303.069 218.197 301.626 227.486 298.08 239.881C296.542 245.216 295.789 248.417 294.879 253.375C294.251 256.764 294.157 258.333 294.157 264.829C294.189 273.146 294.502 275.562 296.573 281.838C297.609 285.008 301.438 292.947 302.002 293.135C302.222 293.198 302.536 291.692 302.881 289.401C303.572 284.286 304.984 278.731 306.302 276.095C307.651 273.302 311.134 269.694 313.488 268.627C316.03 267.465 318.509 267.183 326.543 267.183H333.823L334.168 268.438C336.961 278.763 337.087 295.395 334.482 308.889C331.313 325.301 324.189 339.988 313.708 351.756C302.944 363.869 292.4 370.491 279.471 373.315C274.073 374.476 263.278 374.445 258.445 373.221C256.97 372.844 257.158 372.499 259.261 371.84C262.368 370.804 269.68 367.07 272.347 365.093C273.822 363.995 276.521 361.61 278.341 359.79C287.065 351.065 292.557 340.835 295.883 327.121C296.668 323.826 297.107 317.079 296.542 317.079C296.322 317.079 294.848 318.303 293.278 319.778C289.167 323.638 285.778 326.023 279.722 329.287C277.902 330.291 272.065 332.582 271.845 332.394C271.782 332.299 272.096 331.766 272.535 331.17C273.508 329.914 275.736 325.27 276.678 322.571C279.282 315.071 280.443 304.778 279.596 296.65C278.749 288.617 275.893 278.606 272.535 271.953C268.016 262.978 260.736 253.375 253.487 246.754C248.654 242.36 240.809 236.304 240.338 236.586C240.213 236.68 240.213 237.277 240.369 237.904C240.558 238.563 240.746 241.137 240.872 243.647C241.154 251.21 239.993 258.428 237.137 266.43C235.505 271.012 231.018 280.049 227.44 285.855C217.524 302.016 213.256 311.556 211.436 321.63C210.463 326.902 210.4 335.155 211.248 339.486C212.848 347.425 216.394 354.612 221.917 361.045C225.714 365.438 231.143 369.235 236.321 371.055C239.146 372.06 239.961 372.468 239.679 372.75C239.616 372.813 238.141 373.158 236.415 373.535C232.807 374.288 226.562 374.57 222.921 374.194Z" fill="#FAFAFA"/>
<path d="M64.9164 299.161C54.2153 298.345 44.8637 292.822 38.2422 283.47C29.6437 271.263 28.6081 254.63 35.6375 241.45C41.3176 230.781 50.6065 223.751 61.9665 221.46C64.5398 220.958 67.0189 220.927 92.2182 220.99C108.254 221.052 120.524 221.209 121.717 221.398C124.039 221.743 128.652 223.249 130.974 224.442C135.964 226.921 141.926 232.13 144.939 236.649C147.92 241.105 150.588 247.758 150.588 250.739V251.806H138.506H126.455L125.985 250.959C124.604 248.323 120.807 245.467 117.355 244.4C115.221 243.772 67.6466 243.772 65.5126 244.4C61.6841 245.561 57.8869 248.605 56.0668 251.994C55.0626 253.846 53.9329 258.239 53.9329 260.279C53.9329 262.256 54.7174 265.708 55.5961 267.591C57.1652 271.012 60.8368 274.338 64.4457 275.625C66.3285 276.315 66.3913 276.315 91.7788 276.221L117.198 276.127L119.551 274.966C122.156 273.679 124.572 271.419 126.016 268.909L126.926 267.34L139.071 267.246C149.521 267.183 151.215 267.246 151.215 267.622C151.215 269.85 148.767 277.037 146.947 280.175C141.926 288.836 136.34 293.951 128.37 297.121C122.878 299.318 123.851 299.255 94.5718 299.349C80.0736 299.412 66.7365 299.318 64.9164 299.161Z" fill="#FAFAFA"/>
<path d="M378.26 299.16C365.456 297.905 353.531 288.02 348.949 274.934C348.008 272.235 347.035 268.532 347.035 267.622C347.035 267.246 348.824 267.183 359.274 267.183H371.513L371.983 268.281C372.705 270.101 375.247 273.051 376.942 274.149C380.394 276.378 378.981 276.252 406.346 276.283C433.146 276.283 432.361 276.315 436.033 274.463C438.198 273.365 440.865 270.666 442.183 268.25C443.219 266.336 444.317 262.225 444.317 260.31C444.317 258.019 443.47 254.63 442.372 252.434C440.865 249.421 437.57 246.22 434.746 245.028L432.549 244.118L407.601 244.023C381.084 243.929 381.398 243.929 378.291 245.467C376.565 246.314 373.396 249.17 372.423 250.77L371.764 251.806H359.556H347.318L347.506 250.645C348.039 247.318 350.079 241.952 352.15 238.5C353.908 235.519 357.673 231 360.121 228.992C362.914 226.638 366.962 224.316 370.32 223.123C376.22 221.021 375.404 221.084 406.064 221.052C436.849 220.989 436.064 220.958 442.058 223.092C447.456 225.038 451.786 227.925 456.117 232.412C463.366 239.975 467.226 249.609 467.226 260.248C467.226 271.137 463.115 280.959 455.175 288.961C449.841 294.359 443.407 297.748 436.221 298.909C433.679 299.317 382.025 299.537 378.26 299.16Z" fill="#FAFAFA"/>
<path d="M305.925 254.16C305.925 254.097 306.835 252.151 307.934 249.86C311.135 243.239 313.708 236.555 314.995 231.534C316.407 226.01 316.658 224.19 316.877 218.856L317.066 213.364L318.917 215.843C322.495 220.644 326.135 227.391 328.991 234.546C331.093 239.787 333.855 250.08 333.478 251.241C333.353 251.555 331.313 251.649 323.624 251.68C313.08 251.712 311.292 251.931 308.185 253.501C306.647 254.285 305.925 254.505 305.925 254.16Z" fill="#FAFAFA"/>
<path d="M69.4355 206.554C69.8748 203.698 71.0359 198.709 72.4795 193.437C74.6134 185.717 74.6448 185.623 78.6302 175.487C81.5173 168.049 87.5739 156.501 93.1284 147.808C95.89 143.509 101.821 135.099 103.798 132.682C104.237 132.149 105.336 130.799 106.183 129.701C111.738 122.609 123.882 110.402 132.387 103.341C139.698 97.2841 150.839 89.7212 160.473 84.3236C184.448 70.861 210.871 63.1412 239.24 61.321C265.82 59.6264 294.66 64.6788 320.424 75.5682C324.817 77.3883 335.769 82.8801 339.19 84.9512C344.18 87.9325 344.995 88.4659 350.801 92.3572C359.619 98.2569 364.609 102.148 372.454 109.209C390.09 125.119 403.647 143.007 414.034 164.095C421.001 178.217 425.583 191.334 427.999 204.075C428.501 206.648 428.533 207.433 428.219 207.621C428.031 207.747 422.758 207.841 416.576 207.778L405.279 207.715L404.243 204.106C400.635 191.773 397.308 182.924 393.009 174.451C384.222 157.034 374.996 144.513 360.498 130.14C351.68 121.448 346.659 117.337 336.93 110.809C320.298 99.6377 303.729 92.4828 284.272 88.0266C259.356 82.3152 237.169 82.5349 212.095 88.6542C199.731 91.6982 191.038 94.8364 179.459 100.454C162.23 108.832 147.575 119.596 133.046 134.628C114.75 153.551 101.131 177.212 94.572 201.596C93.9444 203.918 93.2853 206.303 93.1284 206.868L92.7832 207.872H81.0152H69.2158L69.4355 206.554Z" fill="#FAFAFA"/>
</svg>
